<?xml version="1.0" encoding="utf-8"?>
<!-- Generator: Adobe Illustrator 16.0.0, SVG Export Plug-In . SVG Version: 6.00 Build 0)  -->
<!DOCTYPE svg PUBLIC "-//W3C//DTD SVG 1.1//EN" "http://www.w3.org/Graphics/SVG/1.1/DTD/svg11.dtd">
<svg version="1.1" id="Layer_1" xmlns="http://www.w3.org/2000/svg" xmlns:xlink="http://www.w3.org/1999/xlink" x="0px" y="0px"
	 width="120px" height="120px" viewBox="0 0 120 120" enable-background="new 0 0 120 120" xml:space="preserve">
<g>
	<g id="_x23_24539eff">
		<path fill="#24539E" d="M58.03,2.795c0.985-0.073,1.976-0.049,2.962-0.12c0.229,4.288,0.462,8.576,0.692,12.864
			c-1.007,0.043-2.013,0.087-3.018,0.127c-0.088-1.762-0.184-3.521-0.272-5.283c-0.727,0.003-1.451,0.043-2.175,0.093
			c0.125,1.76,0.217,3.521,0.272,5.282c-0.993,0.057-1.986,0.105-2.979,0.146c-0.213-4.271-0.429-8.543-0.64-12.814
			c0.974-0.09,1.948-0.133,2.925-0.18c0.11,1.632,0.214,3.265,0.311,4.896c0.7-0.046,1.4-0.1,2.102-0.131
			C58.159,6.05,58.116,4.422,58.03,2.795z"/>
		<path fill="#24539E" d="M66.622,3.127c1.189,0.172,2.377,0.341,3.566,0.513c0.319,4.379,0.569,8.763,0.876,13.145
			c-1.023-0.105-2.037-0.264-3.052-0.421c0.006-0.815,0.006-1.632-0.003-2.447c-0.78-0.1-1.557-0.243-2.328-0.388
			c-0.253,0.804-0.554,1.59-0.833,2.383c-0.998-0.085-1.973-0.321-2.96-0.466C63.424,11.323,65.051,7.236,66.622,3.127
			 M66.383,11.316c0.541,0.095,1.084,0.186,1.628,0.274c-0.049-1.886,0.03-3.772,0-5.658C67.35,7.689,66.867,9.505,66.383,11.316z"
			/>
		<path fill="#24539E" d="M46.788,4.389c0.828-0.255,1.657-0.507,2.502-0.694c1.142,4.147,2.252,8.301,3.302,12.472
			c-1.009,0.264-2.018,0.531-3.023,0.801c-1.677-2.663-3.313-5.349-4.916-8.055c0.769,2.902,1.545,5.807,2.318,8.711
			c-0.835,0.243-1.67,0.479-2.506,0.712c-1.117-4.148-2.28-8.287-3.289-12.466c1.034-0.275,2.069-0.545,3.104-0.822
			c1.675,2.37,3.231,4.828,4.646,7.364C48.215,9.737,47.499,7.063,46.788,4.389z"/>
		<path fill="#24539E" d="M72.685,17.547c0.444-4.355,0.905-8.709,1.36-13.066c0.951,0.316,1.917,0.601,2.865,0.931
			c-0.315,2.989-0.868,5.948-1.33,8.919c1.409-2.66,2.776-5.342,4.146-8.021c0.959,0.319,1.914,0.652,2.878,0.954
			c-2.168,3.81-4.378,7.598-6.579,11.389C74.91,18.292,73.797,17.917,72.685,17.547z"/>
		<path fill="#24539E" d="M31.415,10.423c2.077-1.051,4.156-2.097,6.233-3.146c0.371,0.666,0.713,1.35,1.059,2.03
			c-1.175,0.623-2.352,1.242-3.526,1.865c0.365,0.791,0.757,1.572,1.206,2.321c1.127-0.562,2.254-1.123,3.383-1.681
			c0.383,0.681,0.754,1.37,1.115,2.063c-1.139,0.602-2.303,1.147-3.437,1.756c0.466,0.915,0.938,1.828,1.405,2.742
			c1.277-0.501,2.463-1.206,3.713-1.775c0.391,0.664,0.722,1.358,1.058,2.049c-2.143,1.097-4.288,2.194-6.433,3.29
			C35.266,18.099,33.34,14.261,31.415,10.423z"/>
		<path fill="#24539E" d="M84.538,8.375c0.953,0.531,1.906,1.063,2.859,1.596c-0.597,2.847-1.272,5.681-2.065,8.479
			c1.371-2.396,2.782-4.771,4.214-7.133c0.768,0.437,1.527,0.879,2.285,1.333c-2.188,3.71-4.362,7.432-6.564,11.135
			c-0.893-0.582-1.834-1.081-2.724-1.664c0.688-3.008,1.438-6,2.259-8.977c-1.572,2.513-2.956,5.137-4.544,7.642
			c-0.741-0.471-1.484-0.938-2.228-1.407C80.199,15.711,82.364,12.042,84.538,8.375z"/>
		<path fill="#24539E" d="M25.974,13.982c0.831-0.663,2.052-0.78,2.991-0.287c0.724,0.38,1.27,1.021,1.703,1.701
			c0.46,0.722,0.554,1.679,0.158,2.45c0.578-0.217,1.244-0.267,1.812,0.02c1.211,0.619,2.076,1.809,2.425,3.113
			c0.173,0.689,0.097,1.452-0.295,2.057c-1.095,1.853-3.04,2.906-4.651,4.24c-0.711-0.771-1.352-1.604-2.015-2.416
			c-2.053-2.534-4.104-5.065-6.155-7.602C23.242,16.109,24.62,15.06,25.974,13.982 M25.709,17.018
			c0.604,0.745,1.206,1.488,1.812,2.231c0.434-0.438,1.188-0.808,1.079-1.536c-0.189-0.619-0.644-1.18-1.222-1.474
			C26.705,16.056,26.164,16.614,25.709,17.018 M28.964,21.004c0.712,0.884,1.426,1.769,2.141,2.652
			c0.398-0.457,1.09-0.788,1.101-1.473c0.038-0.836-0.631-1.467-1.252-1.92C30.198,19.918,29.508,20.558,28.964,21.004z"/>
		<path fill="#24539E" d="M18.474,19.8c0.414-0.154,0.829-0.306,1.243-0.456c0.168,0.424,0.338,0.846,0.519,1.264
			c2.338,0.798,3.945,2.774,5.743,4.356c1.016,0.863,2.04,1.938,2.175,3.33c0.101,0.946-0.385,1.813-0.916,2.557
			c-0.572,0.806-1.319,1.487-2.182,1.973c0.107,0.302,0.215,0.604,0.323,0.905c-0.455,0.148-0.873,0.456-1.365,0.448
			c-0.499,0.788-0.953,1.604-1.441,2.399c-1.625-0.255-3.245-0.553-4.872-0.806c0.328,0.498,0.614,1.032,1.015,1.476
			c0.806,0.534,1.651,1.009,2.479,1.51c-0.517,0.857-1.017,1.726-1.529,2.586c-3.679-2.172-7.373-4.318-11.048-6.493
			c0.479-0.856,0.961-1.713,1.483-2.545c1.319,0.752,2.642,1.503,3.962,2.255c0.315,0.191,0.639,0.373,0.987,0.505
			c-1.28-1.615-2.518-3.265-3.691-4.959c0.46-0.912,1.023-1.764,1.539-2.645c1.111,1.645,2.229,3.286,3.335,4.933
			c0.143,0.191,0.276,0.452,0.554,0.448c2.4,0.347,4.802,0.688,7.203,1.034c-0.143-0.327-0.189-0.804-0.607-0.891
			c-2.15-0.698-3.671-2.466-5.28-3.953c-0.673-0.685-1.534-1.203-2.024-2.052c-0.627-1.003-0.729-2.335-0.168-3.39
			c0.641-1.227,1.661-2.265,2.909-2.867C18.704,20.416,18.589,20.106,18.474,19.8 M18.539,25.065
			c0.811,1.22,2.056,2.034,3.131,2.992c-0.462-1.357-1.05-2.669-1.589-3.997c-0.1-0.407-0.602-0.471-0.952-0.418
			C18.508,23.717,18.122,24.573,18.539,25.065 M22.402,25.89c0.479,1.286,1.012,2.552,1.507,3.832
			c0.161,0.486,0.939,0.5,1.192,0.083c0.312-0.404,0.174-0.942-0.043-1.355C24.457,27.34,23.316,26.706,22.402,25.89z"/>
		<path fill="#24539E" d="M80.029,27.385c5.116-1.069,10.383-1.182,15.583-0.891c3.997,0.222,7.987,0.759,11.864,1.767
			c4.664,6.933,7.768,14.901,9.013,23.162c-6.396-1.928-12.94-3.39-19.563-4.275c1.408,0.536,2.858,0.963,4.267,1.511
			c5.457,2.028,10.729,4.537,15.811,7.375c0.469,7.091-0.251,14.297-2.433,21.076c-5.714-2.835-11.422-5.73-17.453-7.84
			c1.539,1.21,3.24,2.196,4.833,3.331c3.864,2.667,7.569,5.556,11.23,8.493c-2.683,6.874-6.749,13.188-11.827,18.535
			c-5.972-4.895-11.331-10.49-16.3-16.389c1.559,3.556,3.805,6.738,5.902,9.985c2.283,3.251,4.592,6.491,7.18,9.513
			c-5.629,5.091-12.323,8.964-19.486,11.459c-3.632-5.271-6.135-11.199-8.496-17.121c0.13,2.389,0.673,4.724,1.102,7.07
			c0.854,3.821,1.841,7.616,3.025,11.349c-4.355,1.182-8.864,1.745-13.371,1.822c-3.579,0.056-7.168-0.209-10.684-0.889
			c-0.466-3.126-0.786-6.279-0.815-9.443c-0.05-3.632,0.373-7.247,0.692-10.856c0.366-1.597,0.407-3.244,0.393-4.875
			c0.001-0.362-0.104-0.772-0.442-0.961c-0.496-0.072-0.973,0.137-1.397,0.369c-0.646,0.354-1.33,0.642-1.958,1.03
			c-1.686,0.994-3.256,2.255-5.156,2.828c-0.981,0.306-2.186,0.083-2.849-0.746c-1.117-1.322-1.575-3.025-2.125-4.628
			c-0.736-2.732-1.718-5.481-1.574-8.354c-0.032-0.621,0.339-1.236,0.874-1.535c0.645-0.207,1.347-0.068,1.952,0.194
			c1.879,0.879,3.521,2.163,5.226,3.328c1.087,0.73,2.267,1.368,3.559,1.639c0.483,0.106,1.042-0.033,1.395-0.384
			c0.701-1.182,0.853-2.643,0.595-3.975c-0.267-1.299-1.454-2.596-2.87-2.439c-1.987,0.133-3.851,0.996-5.847,1.061
			c-1.444,0.052-2.937,0.099-4.32-0.385c-0.92-0.319-1.895-0.597-2.652-1.237c-0.467-0.379-0.718-0.943-0.973-1.474
			c-0.787-1.729-1.012-3.641-1.167-5.513c-0.074-0.69-0.003-1.39,0.143-2.065c0.07-0.251,0.119-0.552,0.37-0.688
			c1.491-1.005,3.269-1.755,4.287-3.313c0.411-0.947,0.341-2.038,0.134-3.03c-0.505,0.543-0.874,1.231-1.516,1.637
			c-0.96,0.599-2.104,1.028-3.25,0.839c-0.396-0.039-0.615-0.428-0.805-0.73c-0.536-1.041-0.275-2.25-0.198-3.364
			c0.1-0.93,0.392-1.948,1.17-2.536c3.775-2.831,8.043-4.918,12.358-6.78c4.066-1.73,8.127-3.521,12.386-4.738
			c0.417-0.264,0.462-0.83,0.641-1.254c0.365-1.115,1.357-1.84,2.318-2.425c2.348-1.524,4.882-2.742,7.481-3.765
			c0.508-0.256,1.198-0.292,1.552-0.766c0.506-1.703,1.305-3.344,2.511-4.664c0.586-0.699,1.353-1.205,2.099-1.717
			C74.744,29.166,77.321,28.004,80.029,27.385 M58.737,47.957c-0.253,0.675-0.118,1.42-0.315,2.106
			c-0.121,0.505-0.55,0.881-1.045,1.004c-0.533,0.146-1.266,0.354-1.189,1.064c0.805-0.127,1.434-0.711,2.227-0.866
			c1.887-0.454,3.817-0.682,5.746-0.862c0.421-0.031,0.842-0.075,1.254-0.178c-0.05-0.115-0.11-0.221-0.184-0.318
			c-1.415-1.412-3.287-2.359-5.266-2.647C59.47,47.207,58.918,47.473,58.737,47.957z"/>
		<path fill="#24539E" d="M16.278,42.613c0.896,0.305,1.792,0.61,2.687,0.914c-0.309,0.918-0.666,1.82-0.971,2.742
			c-0.918-0.276-1.838-0.548-2.739-0.876C15.596,44.466,15.937,43.54,16.278,42.613z"/>
		<path fill="#24539E" d="M5.381,44.933c1.177-0.814,2.73-0.613,4.029-0.237c-0.118,0.928-0.326,1.839-0.52,2.751
			c-0.662-0.095-1.36-0.439-2.021-0.169c-0.784,0.323-0.89,1.729,0.042,1.925c2.128,0.452,4.264,0.872,6.394,1.317
			c0.37,0.051,0.801,0.179,1.139-0.045c0.406-0.378,0.527-1.092,0.188-1.547c-0.612-0.618-1.545-0.61-2.34-0.791
			c0.158-0.917,0.317-1.834,0.513-2.744c1.306,0.153,2.738,0.403,3.683,1.407c0.896,0.896,0.871,2.293,0.666,3.457
			c-0.237,0.998-0.613,2.065-1.464,2.707c-0.901,0.667-2.107,0.757-3.175,0.529c-2.053-0.444-4.103-0.898-6.155-1.341
			c-1.043-0.189-1.968-0.955-2.364-1.936C3.534,48.389,3.905,46.208,5.381,44.933z"/>
		<path fill="#24539E" d="M13.151,55.209c0.981,0.104,1.963,0.207,2.942,0.311c-0.103,1.01-0.206,2.021-0.311,3.033
			c-0.962-0.104-1.925-0.212-2.888-0.311C12.981,57.232,13.066,56.22,13.151,55.209z"/>
		<path fill="#24539E" d="M2.878,55.446c0.817,0.037,1.632,0.072,2.449,0.11c0,1.365,0.001,2.729,0,4.094
			c0.801,0.086,1.608,0.096,2.413,0.093c0.051-1.273,0.063-2.549,0.092-3.82c0.786,0.019,1.571,0.036,2.355,0.055
			c0.004,1.266-0.004,2.534,0.006,3.801c1.844,0.053,3.689,0.1,5.535,0.146c-0.019,1.008-0.035,2.015-0.057,3.02
			c-4.271-0.08-8.539-0.161-12.811-0.241C2.856,60.286,2.866,57.865,2.878,55.446z"/>
	</g>
	<g id="_x23_df0023ff">
		<path fill="#DF0023" d="M11.583,67.356c1.498-0.106,2.965-0.455,4.457-0.614c0.479,2.727,1.147,5.423,2.079,8.03
			c0.594,1.738,1.387,3.399,2.163,5.061c-1.353,0.725-2.729,1.397-4.093,2.101c-2.196-4.125-3.646-8.627-4.44-13.227
			C11.678,68.258,11.551,67.814,11.583,67.356z"/>
		<path fill="#DF0023" d="M3.465,68.699C4.959,68.373,6.474,68.135,7.997,68c0.304,1.55,0.54,3.113,0.946,4.644
			c0.934,3.735,2.332,7.341,3.953,10.827c-1.314,0.733-2.67,1.395-4.038,2.028C6.184,80.231,4.376,74.533,3.465,68.699z"/>
		<path fill="#DF0023" d="M18.051,85.405c1.228-0.916,2.608-1.585,3.894-2.409c2.612,4.095,5.779,7.849,9.449,11.032
			c3.215,2.776,6.889,4.995,10.758,6.736c0.838,0.389,1.712,0.685,2.55,1.068c-0.25,1.542-0.523,3.079-0.784,4.618
			c-1.139-0.255-2.213-0.711-3.28-1.164c-4.327-1.736-8.295-4.284-11.854-7.282C24.559,94.424,20.857,90.189,18.051,85.405z"/>
		<path fill="#DF0023" d="M11.087,89.504c1.306-0.764,2.552-1.625,3.895-2.323c4.389,7.492,10.804,13.729,18.226,18.198
			c3.211,1.924,6.631,3.51,10.199,4.65c0.081,1.609-0.134,3.216-0.057,4.825c-8.638-2.612-16.585-7.387-23.087-13.631
			C16.676,97.771,13.547,93.834,11.087,89.504z"/>
	</g>
</g>
</svg>
