<?xml version="1.0" encoding="utf-8"?>
<!-- Generator: Adobe Illustrator 16.0.0, SVG Export Plug-In . SVG Version: 6.00 Build 0)  -->
<!DOCTYPE svg PUBLIC "-//W3C//DTD SVG 1.1//EN" "http://www.w3.org/Graphics/SVG/1.1/DTD/svg11.dtd">
<svg version="1.1" id="Layer_1" xmlns="http://www.w3.org/2000/svg" xmlns:xlink="http://www.w3.org/1999/xlink" x="0px" y="0px"
	 width="120px" height="120px" viewBox="0 0 120 120" enable-background="new 0 0 120 120" xml:space="preserve">
<g>
	<path fill="#FFFFFF" d="M51.616,7.888c2.276-0.175,4.551-0.418,6.825-0.626c0.106,1.029,0.256,2.055,0.246,3.09
		c-0.121,0.576-0.957,0.667-1.174,0.113C57.352,9.883,57.363,9.27,57.3,8.67c-0.51,0.051-1.017,0.099-1.522,0.148
		c0.184,1.752,0.347,3.508,0.482,5.266c0.637-0.008,1.281-0.012,1.909,0.129c-0.021,0.313-0.058,0.625-0.106,0.937
		c-1.388,0.351-2.853,0.415-4.281,0.476c-0.6,0.064-0.68-0.799-0.342-1.143c0.504-0.122,1.023-0.169,1.539-0.229
		c-0.127-1.772-0.308-3.543-0.485-5.311c-0.492,0.039-0.984,0.08-1.474,0.122c-0.074,0.75,0.494,1.912-0.393,2.319
		c-0.462,0.012-0.779-0.371-0.775-0.805C51.732,9.685,51.669,8.785,51.616,7.888z"/>
	<path fill="#FFFFFF" d="M64.208,8.23c0.128-0.145,0.384-0.438,0.511-0.583c1.561,0.005,3.119,0.231,4.661,0.448
		c0.584,0.056,0.448,0.685,0.513,1.094c-0.584,0.154-1.183,0.116-1.774,0.064c-0.173,1.451-0.29,2.91-0.487,4.355
		c-0.145,1.234-1.39,2.079-2.57,2.111c-1.242,0.119-2.346-0.563-3.371-1.166c0.129-0.848,0.146-1.717,0.332-2.559
		c0.068-0.531,0.674-0.375,1.047-0.455c0.279,0.76,0.072,1.558,0.025,2.336c0.956,0.591,2.602,0.982,3.2-0.267
		c0.294-1.497,0.341-3.032,0.545-4.545C65.932,8.904,64.732,9.188,64.208,8.23z"/>
	<path fill="#FFFFFF" d="M72.473,9.097c0.426-0.4,1.006-0.054,1.478,0.051c0.512,0.216,1.248,0.267,1.448,0.883
		c-0.053,0.438-0.469,0.614-0.784,0.833c0.204,0.706,0.405,1.411,0.604,2.12c0.591-0.457,1.187-0.903,1.812-1.315
		c-0.568-0.345-0.793-0.857-0.482-1.475c1.073,0.154,2.264,0.338,3.135,1.012c0.271,0.823-0.563,0.909-1.15,0.948
		c-1.094,0.697-2.062,1.572-3.096,2.351c-0.207,0.639-0.414,1.272-0.625,1.91c0.475,0.16,0.963,0.293,1.404,0.534
		c0.393,0.373,0.109,1.194-0.477,1.073c-1.115-0.193-2.162-0.674-3.254-0.977c-0.473-0.094-0.81-0.43-1.049-0.83
		c0.485-0.881,1.401-0.444,2.146-0.209c0.188-0.633,0.424-1.25,0.571-1.893c-0.258-1.277-0.702-2.509-1.053-3.763
		C72.65,10.104,72.114,9.666,72.473,9.097z"/>
	<path fill="#FFFFFF" d="M41.128,10.758c1.32-0.49,2.675-0.938,4.063-1.189c3.342-0.24,5.398,4.732,2.955,6.969
		c-1.1,0.862-2.549,1.041-3.834,1.508c-0.444,0.106-1.141,0.441-1.379-0.156c-0.285-0.516,0.25-0.852,0.629-1.073
		c-0.478-1.647-1.031-3.274-1.481-4.928C41.386,12.067,40.509,11.434,41.128,10.758 M43.271,11.406
		c0.511,1.705,1.057,3.401,1.558,5.109c1.091-0.374,2.592-0.504,3-1.791c0.296-1.367-0.329-2.992-1.578-3.698
		C45.271,10.541,44.232,11.176,43.271,11.406z"/>
	<path fill="#FFFFFF" d="M33.378,14.531c1.181-0.593,2.283-1.346,3.507-1.847c0.547-0.155,0.842,0.426,0.736,0.886
		c-0.507,0.471-1.146,0.76-1.744,1.104c0.859,1.554,1.723,3.104,2.559,4.67c0.733-0.398,1.459-0.988,2.353-0.777
		c-0.009,0.227-0.026,0.673-0.036,0.896c-1.242,0.896-2.656,1.521-3.979,2.289c-0.492,0.367-1.275,0.216-1.291-0.492
		c0.365-0.691,1.189-0.891,1.807-1.291c-0.848-1.561-1.693-3.122-2.564-4.67c-0.735,0.285-1.824,1.436-2.401,0.392
		C32.239,15.026,32.93,14.808,33.378,14.531z"/>
	<path fill="#FFFFFF" d="M83.764,14.455c-0.625-0.287-1.836-1.031-0.884-1.689c0.974-0.089,1.726,0.75,2.577,1.121
		c0.59,0.35,1.893,0.848,1.145,1.689c-0.584,0.323-1.168-0.271-1.701-0.457c-0.881,1.53-1.75,3.066-2.631,4.596
		c0.854,0.498,1.707,0.994,2.57,1.477c0.401-0.676,0.98-2.342,1.965-1.373c-0.044,1.192-1.004,2.108-1.49,3.155
		c-2.024-1.201-4.117-2.29-6.104-3.552c0.045-0.19,0.133-0.566,0.183-0.754c0.543-0.523,1.227,0.196,1.769,0.384
		C82.021,17.518,82.9,15.99,83.764,14.455z"/>
	<path fill="#FFFFFF" d="M27.282,18.703c0.759-0.516,1.601-1.93,2.579-1.035c-0.115,0.371-0.27,0.729-0.344,1.112
		c1.06,1.306,2.187,2.56,3.262,3.853c0.525-0.317,1.367-0.377,1.355,0.445c-0.438,0.782-1.238,1.287-1.918,1.85
		c-0.281,0.367-0.984,0.395-1.115-0.125c-0.332-0.54,0.439-0.901,0.713-1.272c-0.869-1.043-1.748-2.081-2.66-3.09
		c0.386,1.22,0.727,2.45,1.091,3.675c-0.282,0.254-0.565,0.51-0.845,0.768c-1.168-0.547-2.328-1.109-3.49-1.664
		c0.857,1.05,1.752,2.064,2.619,3.105c0.436-0.47,1.539-1.048,1.693-0.027c-0.387,0.963-1.427,1.574-2.258,2.162
		c-0.865,0.353-1.025-0.881-0.474-1.32c-1.101-1.319-2.222-2.624-3.337-3.93c-0.375,0.188-0.762,0.234-1.161,0.146
		c-0.608-1.068,0.913-1.619,1.489-2.27c1.36,0.615,2.697,1.285,4.056,1.908C28.121,21.562,27.711,20.129,27.282,18.703z"/>
	<path fill="#FFFFFF" d="M91.48,18.935c0.041-0.578,0.821-0.753,1.172-0.332c0.957,0.856,2.021,1.619,2.816,2.64
		c-0.123,0.192-0.377,0.577-0.501,0.773c-0.575-0.172-1.053-0.523-1.491-0.916c-1.187,1.305-2.328,2.646-3.508,3.952
		c0.721,0.67,1.463,1.319,2.205,1.963c0.553-0.474,1.065-1.69,1.936-1.263c0.062,0.143,0.18,0.43,0.242,0.572
		c-0.479,0.99-1.389,1.698-2.066,2.553c-1.643-1.498-3.378-2.899-4.973-4.444c-0.479-0.374-0.06-1.272,0.561-1.085
		c0.409,0.236,0.764,0.548,1.13,0.842c1.149-1.34,2.33-2.657,3.495-3.982C92.137,19.813,91.505,19.543,91.48,18.935z"/>
	<path fill="#FFFFFF" d="M55.417,20.018c7.632-0.854,15.517,0.451,22.397,3.896c8.131,4,14.813,10.834,18.646,19.045
		c3.713,7.871,4.729,16.973,2.894,25.479c-1.795,8.527-6.502,16.389-13.104,22.061c-6.537,5.666-14.949,9.123-23.587,9.66
		c-8.119,0.535-16.403-1.414-23.359-5.652c-7.943-4.739-14.144-12.313-17.228-21.033c-3.019-8.436-3.086-17.889-0.198-26.369
		c2.891-8.619,8.83-16.157,16.492-21.037C43.492,22.787,49.369,20.696,55.417,20.018 M58.296,21.381
		c-5.304,0.234-10.567,1.552-15.323,3.918c-7.143,3.49-13.136,9.26-16.937,16.24c-3.742,6.802-5.274,14.754-4.483,22.465
		c0.856,8.632,4.768,16.916,10.879,23.066c5.959,6.137,14.031,10.174,22.518,11.258c8.75,1.174,17.896-0.763,25.384-5.455
		c7.373-4.549,13.149-11.646,16.063-19.813c2.994-8.32,3.012-17.681,0.03-26.009c-2.636-7.493-7.696-14.088-14.185-18.662
		C75.331,23.478,66.762,20.983,58.296,21.381z"/>
	<path fill="#FFFFFF" d="M100.27,28.145c-0.446-0.516-1.33-1.658-0.252-2.02c1.153,0.492,1.646,1.877,2.482,2.772
		c-1.207,2.022-2.41,4.044-3.618,6.07c0.282,0.584,0.276,1.47-0.61,1.354c-0.705-0.587-1.209-1.382-1.711-2.141
		c-0.262-0.439-0.051-0.949,0.479-1.016c0.418,0.084,0.654,0.467,0.97,0.719c0.146-0.252,0.293-0.504,0.44-0.754
		c-0.654-0.883-1.313-1.758-1.975-2.635c-0.285,0.078-0.568,0.153-0.852,0.233c0.593,0.552,0.521,1.853-0.536,1.453
		c-0.616-0.708-1.284-1.427-1.673-2.286c-0.124-0.977,0.99-0.777,1.456-0.313C96.67,29.105,98.475,28.634,100.27,28.145
		 M97.848,30.129c0.444,0.59,0.891,1.183,1.334,1.779c0.514-0.846,1.022-1.697,1.53-2.545C99.76,29.627,98.805,29.883,97.848,30.129
		z"/>
	<path fill="#FFFFFF" d="M13.912,35.029c0.023-0.388-0.102-1.072,0.495-1.076c0.741,0.11,1.429,0.52,2.036,0.946
		c0.434,0.354,0.063,0.83-0.252,1.103c-0.239-0.063-0.715-0.184-0.951-0.246c-1.012,0.473-1.85,1.521-1.696,2.681
		c0.24,1.536,1.8,2.337,3.17,2.633c1.829,0.019,3.113-2.138,2.609-3.801c-0.412-0.69,0.641-1.299,1.081-0.703
		c0.802,1.37,0.197,3.099-0.672,4.288c-0.967,1.367-2.926,1.891-4.434,1.146c-1.41-0.537-2.816-1.631-3.015-3.22
		C12.05,37.338,12.734,35.869,13.912,35.029z"/>
	<path fill="#FFFFFF" d="M105.07,35.319c-0.223-0.53-0.29-1.563,0.6-1.366c0.705,0.385,0.821,1.34,1.201,2.004
		c-1.146,1.806-2.28,3.613-3.413,5.426c1.235-0.549,2.449-1.159,3.679-1.723c-0.223-0.549-0.629-1.59,0.301-1.666
		c0.795,0.197,0.893,1.18,1.27,1.791c0.154,0.457,0.714,1.183,0.104,1.523c-0.453,0.424-0.838-0.199-1.158-0.457
		c-1.979,0.947-3.952,1.891-5.941,2.809c-0.176-0.406-0.348-0.813-0.518-1.223c1.185-1.803,2.287-3.652,3.461-5.462
		c-1.242,0.614-2.506,1.185-3.75,1.794c0.248,0.52,0.644,1.561-0.262,1.646c-0.703-0.071-0.815-0.932-1.133-1.427
		c-0.184-0.604-0.865-1.321-0.316-1.907c0.51-0.332,0.863,0.141,1.183,0.476C101.945,36.824,103.52,36.098,105.07,35.319z"/>
	<path fill="#FFFFFF" d="M9.979,43.062c0.854,0.24,1.744,0.379,2.562,0.731c0.28,0.437,0.201,0.805-0.244,1.106
		c-0.465-0.039-0.919-0.139-1.375-0.229c-0.303,1.127-0.584,2.258-0.887,3.382c0.657,0.163,1.315,0.329,1.975,0.495
		c0.099-0.403,0.196-0.805,0.298-1.204c-0.179-0.063-0.531-0.19-0.707-0.255c-0.006-0.442-0.021-1.223,0.652-1.063
		c0.768,0.11,1.53,0.305,2.245,0.608c0.528,0.708-0.304,1.28-0.988,1.136c-0.079,0.367-0.159,0.738-0.243,1.105
		c0.649,0.166,1.299,0.34,1.948,0.513c0.161-0.599,0.272-1.213,0.513-1.785c0.237-0.593,1.306-0.317,1.143,0.351
		c-0.234,1.244-0.521,2.493-0.961,3.686c-0.119,0.408-1.223,0.412-1.088-0.143c0-0.22,0.005-0.652,0.008-0.871
		c-1.688-0.437-3.374-0.869-5.059-1.314c-0.195,0.421-0.361,1.154-0.996,0.934c-0.53-0.092-0.478-0.685-0.365-1.078
		C8.919,47.129,9.491,45.107,9.979,43.062z"/>
	<path fill="#FFFFFF" d="M29.301,43.893c6.449,2.938,12.875,5.927,19.313,8.886c-2.396,2.39-4.715,4.854-7.131,7.22
		C37.414,54.635,33.318,49.291,29.301,43.893z"/>
	<path fill="#FFFFFF" d="M71.391,52.778c6.439-2.959,12.862-5.954,19.314-8.886c-4.023,5.396-8.115,10.746-12.184,16.105
		C76.104,57.629,73.783,55.168,71.391,52.778z"/>
	<path fill="#FFFFFF" d="M109.145,44.978c-0.274-0.756,0.638-1.554,1.168-0.774c0.387,1.217,0.668,2.471,0.896,3.729
		c0.419,3.537-5.008,5.539-7.141,2.818c-0.651-0.886-0.75-2.019-1.034-3.047c-0.115-0.668-0.468-1.348-0.267-2.029
		c0.516-0.56,1.121-0.032,1.321,0.522C105.773,45.789,107.457,45.381,109.145,44.978 M104.313,47.474
		c0.242,0.836,0.299,1.776,0.817,2.506c1.088,1.28,3.253,0.714,4.274-0.371c0.977-0.922,0.356-2.292,0.104-3.386
		C107.777,46.644,106.043,47.059,104.313,47.474z"/>
	<path fill="#FFFFFF" d="M54.249,51.596c3.837-0.003,7.674-0.01,11.51,0.006c2.937,10.1,5.904,20.189,8.843,30.291
		c-3.431,3.078-6.797,6.23-10.238,9.293c0.773-2.064,1.721-4.059,2.503-6.117c0.226-0.744,0.623-1.613,0.125-2.334
		c-0.496-0.714-1.453-0.734-2.232-0.753c-3.17,0.003-6.34,0.003-9.507,0c-0.797,0.017-1.791,0.042-2.268,0.798
		c-0.471,0.646-0.08,1.446,0.098,2.126c0.782,2.119,1.768,4.16,2.559,6.28c-3.441-3.055-6.781-6.225-10.229-9.27
		C48.318,71.799,51.314,61.707,54.249,51.596z"/>
	<path fill="#FFFFFF" d="M71.611,103.763c0.662-1.624,3.027-1.966,4.262-0.798c0.949,0.881,1.513,2.123,1.814,3.369
		c0.571,2.328-1.353,4.895-3.742,5.014c-0.504,0.061-0.986-0.264-1.008-0.795c0.287-0.797,1.28-0.415,1.873-0.753
		c1.176-0.572,1.683-1.884,1.823-3.107c-0.622,0.722-1.358,1.563-2.414,1.468C72.093,108.196,70.727,105.595,71.611,103.763
		 M73.169,103.843c-1.117,0.907-0.338,2.985,1.062,3.063c0.693-0.028,1.09-0.696,1.287-1.284
		C76.146,104.371,74.229,102.938,73.169,103.843z"/>
	<path fill="#FFFFFF" d="M43.6,103.699c-0.262-0.398-0.437-1.054,0.127-1.297c1.164-0.054,2.33,0.115,3.498,0.133
		c-0.75,2.344-1.494,4.686-2.224,7.03c0.794,0.207,2.813,0.681,1.625,1.74c-1.539-0.191-2.983-0.859-4.479-1.269
		c-0.508-0.082-1.106-0.617-0.676-1.125c0.661-0.59,1.551,0.166,2.288,0.25c0.562-1.795,1.134-3.582,1.699-5.371
		C44.838,103.756,44.218,103.715,43.6,103.699z"/>
	<path fill="#FFFFFF" d="M53.428,104.804c1.313-1.302,3.787-0.591,4.336,1.146c0.577,1.784,0.616,4.025-0.683,5.518
		c-1.162,1.242-3.167,1.889-4.744,1.085c-0.478-0.169-0.353-0.747-0.267-1.12c0.664-0.43,1.322,0.329,2.014,0.175
		c1.236-0.11,2.186-1.04,2.734-2.094c-0.825,0.387-1.776,0.821-2.674,0.377C52.167,109.094,51.893,106.162,53.428,104.804
		 M54.727,105.519c-1.295,0.524-1.35,2.681-0.033,3.217c0.904,0.207,1.599-0.586,1.99-1.289
		C56.938,106.408,55.848,105.07,54.727,105.519z"/>
	<path fill="#FFFFFF" d="M63.083,104.666c1.31-1.021,3.415-0.459,4.108,1.035c0.783,1.596,1.235,3.633,0.3,5.264
		c-0.741,1.267-2.144,2.171-3.632,2.164c-0.563,0.033-1.313-0.143-1.369-0.821c0.109-0.907,1.068-0.453,1.664-0.492
		c1.397-0.188,2.394-1.42,2.693-2.735c-0.773,0.734-1.869,1.308-2.941,0.855C61.779,109.215,61.352,106.025,63.083,104.666
		 M64.173,105.551c-1.18,0.51-1.108,2.349-0.121,3.016c1.222,0.901,2.832-1.225,1.966-2.279
		C65.684,105.631,64.873,105.285,64.173,105.551z"/>
	<g id="_x23_000000ff">
		<path d="M57.783,2.467c10.158-0.385,20.424,1.924,29.371,6.771c9.361,4.999,17.281,12.655,22.613,21.829
			c4.934,8.417,7.637,18.122,7.791,27.877c0.188,9.339-1.938,18.722-6.188,27.045c-6.713,13.353-18.837,23.869-33.022,28.589
			c-9.857,3.336-20.627,3.889-30.785,1.645c-9.599-2.104-18.612-6.752-25.922-13.313C13.98,96.08,8.186,87.168,5.105,77.375
			c-2.858-8.987-3.428-18.684-1.703-27.949c2.105-11.454,7.838-22.194,16.137-30.352C29.618,9.014,43.548,2.953,57.783,2.467
			 M51.616,7.888c0.053,0.897,0.116,1.797,0.233,2.692c-0.002,0.433,0.314,0.815,0.776,0.804c0.888-0.407,0.317-1.569,0.392-2.319
			c0.489-0.042,0.981-0.083,1.475-0.122c0.178,1.767,0.357,3.537,0.486,5.312c-0.517,0.059-1.035,0.105-1.539,0.228
			c-0.338,0.345-0.258,1.207,0.34,1.142c1.43-0.06,2.895-0.125,4.281-0.475c0.051-0.313,0.086-0.623,0.107-0.938
			c-0.628-0.14-1.271-0.137-1.909-0.127c-0.137-1.758-0.3-3.515-0.483-5.267c0.508-0.051,1.015-0.098,1.523-0.147
			c0.063,0.599,0.051,1.211,0.215,1.793c0.215,0.556,1.051,0.464,1.174-0.112c0.008-1.035-0.14-2.062-0.246-3.09
			C56.167,7.469,53.893,7.711,51.616,7.888 M64.208,8.23c0.524,0.958,1.724,0.674,2.63,0.836c-0.203,1.512-0.251,3.048-0.545,4.545
			c-0.6,1.249-2.244,0.857-3.2,0.268c0.046-0.78,0.253-1.578-0.026-2.336c-0.373,0.08-0.978-0.078-1.045,0.453
			c-0.188,0.842-0.205,1.711-0.334,2.56c1.026,0.603,2.131,1.284,3.373,1.166c1.181-0.033,2.426-0.877,2.569-2.111
			c0.196-1.446,0.313-2.905,0.487-4.354c0.593,0.05,1.191,0.089,1.775-0.065c-0.065-0.409,0.069-1.038-0.514-1.094
			c-1.542-0.216-3.102-0.442-4.661-0.448C64.592,7.791,64.336,8.086,64.208,8.23 M72.473,9.097
			c-0.358,0.569,0.178,1.008,0.629,1.254c0.35,1.254,0.793,2.485,1.053,3.763c-0.148,0.643-0.383,1.26-0.572,1.893
			c-0.744-0.234-1.66-0.67-2.146,0.209c0.24,0.4,0.578,0.736,1.051,0.83c1.091,0.304,2.138,0.783,3.253,0.977
			c0.586,0.121,0.868-0.7,0.477-1.072c-0.44-0.242-0.931-0.375-1.405-0.535c0.211-0.637,0.418-1.271,0.625-1.91
			c1.035-0.778,2.002-1.653,3.097-2.351c0.588-0.039,1.421-0.125,1.151-0.948c-0.873-0.674-2.063-0.857-3.136-1.012
			c-0.312,0.617-0.086,1.131,0.483,1.475c-0.627,0.412-1.221,0.858-1.813,1.315c-0.197-0.709-0.4-1.414-0.604-2.12
			c0.316-0.219,0.732-0.395,0.785-0.833c-0.201-0.616-0.938-0.667-1.449-0.883C73.479,9.043,72.898,8.696,72.473,9.097
			 M41.128,10.758c-0.62,0.676,0.258,1.311,0.952,1.129c0.449,1.654,1.005,3.279,1.482,4.928c-0.379,0.223-0.914,0.557-0.629,1.073
			c0.237,0.599,0.934,0.264,1.379,0.157c1.283-0.469,2.733-0.646,3.834-1.51c2.442-2.235,0.386-7.207-2.957-6.968
			C43.803,9.82,42.448,10.268,41.128,10.758 M33.378,14.531c-0.448,0.276-1.139,0.495-1.056,1.159
			c0.578,1.043,1.666-0.106,2.402-0.392c0.871,1.548,1.715,3.111,2.563,4.671c-0.617,0.399-1.44,0.599-1.806,1.29
			c0.015,0.708,0.797,0.859,1.289,0.492c1.323-0.769,2.737-1.394,3.979-2.289c0.009-0.223,0.026-0.67,0.036-0.896
			c-0.893-0.211-1.619,0.379-2.352,0.777c-0.836-1.566-1.699-3.117-2.56-4.67c0.597-0.344,1.235-0.631,1.744-1.104
			c0.106-0.459-0.19-1.041-0.736-0.886C35.661,13.186,34.559,13.938,33.378,14.531 M83.764,14.455
			c-0.863,1.537-1.74,3.063-2.604,4.597c-0.543-0.188-1.225-0.908-1.77-0.384c-0.049,0.188-0.138,0.563-0.183,0.754
			c1.987,1.263,4.08,2.352,6.104,3.552c0.486-1.047,1.447-1.963,1.489-3.155c-0.981-0.97-1.563,0.696-1.964,1.373
			c-0.863-0.482-1.717-0.979-2.57-1.477c0.881-1.53,1.75-3.066,2.631-4.596c0.533,0.184,1.117,0.779,1.701,0.457
			c0.748-0.843-0.555-1.341-1.145-1.69c-0.852-0.371-1.604-1.209-2.577-1.121C81.928,13.422,83.139,14.166,83.764,14.455
			 M27.282,18.703c0.43,1.426,0.839,2.858,1.254,4.291c-1.356-0.623-2.695-1.293-4.056-1.906c-0.576,0.648-2.098,1.201-1.489,2.269
			c0.399,0.089,0.786,0.042,1.161-0.146c1.115,1.305,2.236,2.608,3.337,3.929c-0.552,0.438-0.392,1.672,0.474,1.319
			c0.831-0.586,1.871-1.197,2.258-2.162c-0.154-1.02-1.258-0.441-1.693,0.027c-0.866-1.041-1.762-2.055-2.619-3.104
			c1.162,0.555,2.322,1.118,3.49,1.664c0.277-0.259,0.563-0.513,0.845-0.769c-0.365-1.224-0.706-2.455-1.091-3.674
			c0.914,1.008,1.791,2.046,2.66,3.09c-0.273,0.371-1.045,0.732-0.713,1.272c0.131,0.519,0.834,0.491,1.115,0.125
			c0.68-0.563,1.479-1.067,1.918-1.851c0.012-0.82-0.83-0.762-1.355-0.444c-1.075-1.294-2.202-2.548-3.262-3.853
			c0.075-0.383,0.229-0.74,0.344-1.111C28.883,16.773,28.041,18.188,27.282,18.703 M91.48,18.935
			c0.023,0.608,0.655,0.878,1.018,1.272c-1.165,1.324-2.346,2.642-3.495,3.981c-0.367-0.293-0.721-0.604-1.13-0.842
			c-0.619-0.187-1.038,0.711-0.561,1.085c1.595,1.545,3.328,2.947,4.973,4.445c0.679-0.854,1.589-1.563,2.066-2.553
			c-0.063-0.144-0.182-0.431-0.242-0.574c-0.869-0.426-1.383,0.789-1.936,1.264c-0.742-0.645-1.484-1.292-2.205-1.963
			c1.18-1.305,2.321-2.647,3.508-3.952c0.438,0.392,0.916,0.744,1.491,0.916c0.124-0.196,0.377-0.581,0.501-0.774
			c-0.795-1.02-1.859-1.781-2.816-2.639C92.303,18.182,91.521,18.356,91.48,18.935 M55.417,20.018
			c-6.048,0.679-11.925,2.77-17.049,6.049c-7.662,4.88-13.601,12.418-16.492,21.037c-2.888,8.48-2.819,17.934,0.198,26.369
			c3.084,8.721,9.283,16.294,17.228,21.033c6.956,4.238,15.24,6.188,23.359,5.652c8.638-0.537,17.05-3.994,23.587-9.66
			c6.604-5.672,11.311-13.533,13.105-22.061c1.836-8.507,0.818-17.607-2.895-25.479c-3.831-8.211-10.516-15.045-18.645-19.045
			C70.934,20.468,63.049,19.164,55.417,20.018 M100.27,28.145c-1.795,0.489-3.6,0.961-5.398,1.441
			c-0.465-0.467-1.58-0.664-1.455,0.312c0.389,0.86,1.057,1.577,1.672,2.286c1.061,0.4,1.13-0.9,0.537-1.453
			c0.282-0.08,0.566-0.157,0.852-0.234c0.66,0.879,1.319,1.752,1.975,2.637c-0.146,0.248-0.297,0.501-0.441,0.753
			c-0.314-0.252-0.551-0.634-0.969-0.718c-0.529,0.064-0.739,0.574-0.479,1.015c0.502,0.759,1.006,1.554,1.711,2.142
			c0.887,0.114,0.894-0.771,0.61-1.355c1.207-2.025,2.411-4.047,3.617-6.07c-0.836-0.896-1.328-2.279-2.481-2.771
			C98.938,26.486,99.822,27.629,100.27,28.145 M13.912,35.029c-1.178,0.84-1.862,2.311-1.627,3.751
			c0.197,1.589,1.604,2.683,3.015,3.22c1.507,0.744,3.466,0.22,4.433-1.146c0.869-1.189,1.475-2.918,0.674-4.288
			c-0.441-0.596-1.494,0.013-1.082,0.703c0.504,1.663-0.78,3.819-2.609,3.801c-1.369-0.296-2.93-1.097-3.17-2.633
			c-0.154-1.159,0.686-2.208,1.696-2.681c0.237,0.063,0.712,0.185,0.952,0.246c0.313-0.272,0.685-0.748,0.252-1.103
			c-0.608-0.427-1.297-0.836-2.037-0.946C13.813,33.957,13.936,34.642,13.912,35.029 M105.07,35.319
			c-1.551,0.777-3.125,1.503-4.696,2.239c-0.319-0.335-0.674-0.807-1.185-0.475c-0.549,0.584,0.135,1.302,0.317,1.906
			c0.317,0.495,0.431,1.355,1.134,1.426c0.904-0.086,0.51-1.127,0.26-1.646c1.246-0.61,2.51-1.179,3.75-1.794
			c-1.174,1.809-2.275,3.659-3.459,5.462c0.168,0.409,0.342,0.815,0.517,1.222c1.989-0.916,3.964-1.858,5.94-2.808
			c0.32,0.258,0.707,0.88,1.16,0.457c0.61-0.341,0.051-1.067-0.104-1.524c-0.376-0.61-0.475-1.592-1.27-1.791
			c-0.929,0.077-0.521,1.118-0.3,1.666c-1.229,0.563-2.442,1.174-3.68,1.724c1.133-1.813,2.269-3.62,3.413-5.427
			c-0.38-0.664-0.495-1.619-1.201-2.004C104.779,33.758,104.848,34.789,105.07,35.319 M9.979,43.062
			c-0.486,2.045-1.06,4.067-1.569,6.104c-0.112,0.396-0.166,0.987,0.364,1.08c0.636,0.219,0.802-0.514,0.996-0.935
			c1.686,0.444,3.373,0.878,5.06,1.313c-0.003,0.22-0.009,0.652-0.009,0.873c-0.133,0.554,0.97,0.551,1.089,0.142
			c0.438-1.192,0.728-2.44,0.961-3.687c0.163-0.666-0.905-0.942-1.142-0.35c-0.24,0.572-0.354,1.186-0.514,1.785
			c-0.648-0.172-1.298-0.348-1.947-0.514c0.082-0.367,0.162-0.737,0.242-1.104c0.686,0.146,1.516-0.427,0.988-1.136
			c-0.715-0.303-1.477-0.498-2.245-0.608c-0.673-0.159-0.657,0.62-0.651,1.062c0.174,0.065,0.526,0.193,0.705,0.256
			c-0.101,0.4-0.199,0.801-0.297,1.203c-0.658-0.166-1.316-0.332-1.975-0.494c0.302-1.124,0.584-2.254,0.887-3.381
			c0.457,0.089,0.91,0.189,1.375,0.229c0.445-0.302,0.525-0.67,0.244-1.105C11.721,43.441,10.832,43.302,9.979,43.062
			 M109.145,44.978c-1.688,0.403-3.371,0.813-5.056,1.219c-0.2-0.555-0.807-1.082-1.321-0.522c-0.203,0.683,0.15,1.361,0.267,2.029
			c0.284,1.028,0.382,2.161,1.034,3.047c2.132,2.72,7.56,0.719,7.141-2.818c-0.229-1.258-0.51-2.512-0.896-3.729
			C109.782,43.424,108.869,44.222,109.145,44.978 M71.611,103.763c-0.887,1.832,0.48,4.434,2.609,4.397
			c1.057,0.094,1.791-0.748,2.414-1.469c-0.143,1.225-0.648,2.535-1.824,3.107c-0.593,0.338-1.586-0.045-1.873,0.753
			c0.021,0.53,0.504,0.854,1.008,0.795c2.391-0.119,4.313-2.687,3.742-5.015c-0.303-1.246-0.865-2.487-1.814-3.369
			C74.641,101.797,72.273,102.139,71.611,103.763 M43.6,103.699c0.619,0.018,1.238,0.057,1.858,0.094
			c-0.565,1.787-1.138,3.576-1.699,5.369c-0.737-0.082-1.627-0.839-2.289-0.25c-0.43,0.508,0.169,1.045,0.677,1.125
			c1.498,0.408,2.941,1.076,4.479,1.27c1.188-1.063-0.831-1.533-1.625-1.741c0.729-2.345,1.474-4.688,2.224-7.028
			c-1.168-0.019-2.332-0.188-3.498-0.135C43.163,102.646,43.338,103.3,43.6,103.699 M53.428,104.804
			c-1.535,1.356-1.26,4.29,0.715,5.085c0.898,0.443,1.851,0.01,2.674-0.377c-0.549,1.054-1.498,1.982-2.733,2.094
			c-0.69,0.154-1.349-0.604-2.015-0.175c-0.084,0.374-0.209,0.95,0.268,1.12c1.578,0.804,3.582,0.156,4.744-1.086
			c1.299-1.49,1.26-3.732,0.682-5.518C57.214,104.213,54.741,103.502,53.428,104.804 M63.083,104.666
			c-1.731,1.358-1.304,4.549,0.823,5.27c1.072,0.451,2.168-0.121,2.941-0.855c-0.301,1.315-1.296,2.547-2.693,2.735
			c-0.596,0.039-1.555-0.414-1.664,0.492c0.056,0.68,0.806,0.854,1.369,0.821c1.488,0.007,2.891-0.897,3.632-2.164
			c0.937-1.631,0.483-3.668-0.3-5.264C66.498,104.207,64.393,103.645,63.083,104.666z"/>
		<path d="M43.271,11.406c0.961-0.23,2-0.865,2.98-0.38c1.249,0.706,1.874,2.331,1.578,3.698c-0.409,1.287-1.909,1.417-3,1.791
			C44.328,14.808,43.782,13.111,43.271,11.406z"/>
		<path d="M97.848,30.129c0.957-0.246,1.912-0.502,2.864-0.767c-0.508,0.849-1.019,1.699-1.53,2.544
			C98.736,31.312,98.292,30.719,97.848,30.129z"/>
		<path d="M104.313,47.474c1.73-0.415,3.465-0.83,5.196-1.251c0.253,1.094,0.872,2.464-0.104,3.386
			c-1.022,1.085-3.188,1.651-4.274,0.371C104.611,49.25,104.555,48.31,104.313,47.474z"/>
		<path d="M73.169,103.843c1.06-0.904,2.978,0.528,2.349,1.778c-0.197,0.588-0.594,1.256-1.287,1.284
			C72.831,106.83,72.052,104.75,73.169,103.843z"/>
		<path d="M54.727,105.519c1.121-0.448,2.211,0.89,1.957,1.928c-0.392,0.702-1.086,1.496-1.99,1.289
			C53.377,108.199,53.432,106.043,54.727,105.519z"/>
		<path d="M64.173,105.551c0.699-0.268,1.511,0.08,1.845,0.734c0.866,1.057-0.744,3.183-1.966,2.279
			C63.063,107.899,62.993,106.061,64.173,105.551z"/>
	</g>
	<g id="_x23_ff0d00ff">
		<path fill="#FF0D00" d="M58.296,21.381c8.466-0.396,17.035,2.097,23.947,7.007c6.487,4.575,11.548,11.169,14.184,18.662
			c2.98,8.329,2.964,17.688-0.03,26.01c-2.912,8.165-8.688,15.264-16.063,19.812c-7.488,4.694-16.635,6.631-25.385,5.457
			c-8.486-1.086-16.557-5.121-22.518-11.259C26.32,80.92,22.41,72.635,21.553,64.004c-0.791-7.711,0.742-15.664,4.483-22.467
			c3.801-6.979,9.794-12.75,16.937-16.24C47.729,22.933,52.992,21.615,58.296,21.381 M29.301,43.893
			c4.018,5.398,8.113,10.742,12.182,16.105c2.416-2.365,4.734-4.83,7.131-7.22C42.175,49.818,35.75,46.83,29.301,43.893
			 M71.391,52.778c2.394,2.39,4.715,4.851,7.131,7.22c4.068-5.359,8.16-10.709,12.185-16.105
			C84.253,46.824,77.83,49.818,71.391,52.778 M54.249,51.596c-2.935,10.111-5.931,20.204-8.839,30.32
			c3.447,3.047,6.787,6.215,10.229,9.271c-0.791-2.12-1.775-4.16-2.559-6.28c-0.178-0.68-0.569-1.479-0.098-2.126
			c0.477-0.756,1.471-0.782,2.268-0.798c3.167,0.003,6.337,0.003,9.507,0c0.779,0.02,1.736,0.039,2.231,0.753
			c0.498,0.722,0.102,1.591-0.125,2.334c-0.782,2.058-1.729,4.054-2.502,6.117c3.441-3.063,6.809-6.215,10.238-9.293
			c-2.938-10.103-5.906-20.192-8.843-30.291C61.923,51.586,58.086,51.593,54.249,51.596z"/>
	</g>
</g>
</svg>
