<?xml version="1.0" encoding="utf-8"?>
<!-- Generator: Adobe Illustrator 16.0.0, SVG Export Plug-In . SVG Version: 6.00 Build 0)  -->
<!DOCTYPE svg PUBLIC "-//W3C//DTD SVG 1.1//EN" "http://www.w3.org/Graphics/SVG/1.1/DTD/svg11.dtd">
<svg version="1.1" id="Ebene_1" xmlns="http://www.w3.org/2000/svg" xmlns:xlink="http://www.w3.org/1999/xlink" x="0px" y="0px"
	 width="120px" height="120px" viewBox="204.34 240.591 120 120" enable-background="new 204.34 240.591 120 120"
	 xml:space="preserve">
<path d="M226.052,241.622c-7.484,0-13.569,6.089-13.569,13.569v83.736c0,3.538,1.351,7.008,3.811,9.768
	c2.417,2.713,5.649,4.45,9.109,4.891l-0.064-0.011l32.81,5.502l0.11,0.012c2.743,0.317,4.351,0.468,6.079,0.471h0.007
	c1.729-0.003,3.337-0.153,6.075-0.471c0.005,0,0.117-0.012,0.117-0.012l32.807-5.502l-0.063,0.011
	c3.457-0.44,6.692-2.178,9.106-4.891c2.458-2.76,3.812-6.229,3.812-9.768v-83.736c-0.001-7.48-6.088-13.569-13.57-13.569H226.052z"
	/>
<path fill="#FCC300" d="M226.052,243.192c-6.615,0-11.995,5.382-11.995,11.999v83.736c0,3.152,1.208,6.251,3.409,8.722
	c2.169,2.438,5.054,3.986,8.131,4.379c0.017,0.004,32.77,5.492,32.77,5.492l0.07,0.012c2.68,0.309,4.247,0.453,5.903,0.462h0.005
	c1.652-0.009,3.216-0.153,5.896-0.462l0.072-0.012c0,0,32.753-5.488,32.768-5.492c3.082-0.393,5.967-1.941,8.139-4.379
	c2.198-2.471,3.409-5.569,3.409-8.722v-83.736c0-6.617-5.384-11.999-12.001-11.999H226.052z"/>
<path fill="#A70037" d="M261.685,279.1c1.104-6.969,9.191-10.846,13.053-13.965c-0.15,0.605-0.54,1.588-0.812,2.105
	c-2.594,4.965-10.212,6.299-12.266,11.939L261.685,279.1z"/>
<path fill="#A70037" d="M258.106,297.156c1.063-0.865,1.985-2.185,2.322-2.718c0.341-0.531,1.188-0.869,2.186-1.119
	c2.767-0.69,3.366-1.006,3.366-1.006c-1.957,0.33-4.191-0.244-5.792-0.737c-1.162-0.345-0.733-1.375-0.303-1.786l0,0
	c0.582-0.574,1.376-1.271,2.478-2.165c3.603-2.925,2.903-5.341,2.903-5.341c-0.037,1.792-3.988,4.237-5.983,5.905
	c-1.216,1.021-1.492,2.013-1.525,2.635c-2.47-0.7-4.185-0.907-6.262-0.813c-1.192,0.057-2.143-0.38-2.753-0.785
	c1.681-1.404,3.063-2.87,4.605-4.8c1.549-1.941,1.411-3.656,1.162-5.516c-0.25-1.853,1.026-3.295,2.189-4.875
	c1.165-1.58,4.155-4.294,4.155-4.294c-5.211,2.603-8.366,6.203-9.25,8.228c-0.481,1.09-0.597,3.472-1.474,4.877
	c-0.947,1.526-3.301,3.657-3.966,4.241c-0.458,0.396-0.835,0.773-1.155,1.167l-0.002-0.001c0,0-0.743,0.748-1.094,2.378
	c-0.358,1.625-0.642,3.964-1.525,4.85c-0.887,0.887-3.152,3.118-3.755,3.934c-0.6,0.815-1.627,2.122-2.763,2.479
	c-1.133,0.354-1.486,0.285-2.019,0.32c-0.533,0.033-1.273,0.104-0.886,1.131c0.389,1.027,0.939,2.007,1.901,2.198
	c0.992,0.202,1.489,0.301,2.002,1.521c0.125,0.315,0.273,0.774,0.302,0.895c0.024,0.122,0.172,0.489-0.365,0.688
	c-0.538,0.2-1.908,0.287-2.864,0.176c-0.957-0.111-2.853-0.386-3.727-0.875c-0.872-0.481-1.523-0.896-1.402-2.103
	c0.128-1.205,0.598-3.989,0.789-4.917c0.199-0.931,0.322-1.388,0.404-1.609c0.083-0.221,0.305-0.389,0.54-0.556
	c0.237-0.165,2.857-1.867,3.239-3.808c0.393-1.937,0.362-2.937,0.446-3.626c0.084-0.695,0.387-3.049,1.111-4.101
	c0,0-1.251,1.189-2.162,2.051c-0.918,0.856-2.8,2.491-4.436,3.241c-1.634,0.747-4.765,2.019-6.952,1.907
	c-2.147-0.105-3.889-0.611-4.896-1v23.505h31.358V293.35c0.036-1.194,1.06-1.595,2.988-0.478c1.934,1.119,0.513,3.367,0.298,3.866
	c-0.286,0.654-0.574,1.196-1.475,2.377c-0.828,1.093,0.475,1.99,1.177,2.607c0.702,0.614,3.894,2.969,4.678,3.39
	c0.784,0.418,2.045,0.587,3.22,0.615c1.179,0.03,3.837-0.028,4.174-0.137c0.337-0.115,0.446-0.228,0.114-1.04
	c-0.339-0.813-0.901-1.513-1.431-2.018c-0.531-0.499-1.148-0.499-1.765-0.361c-0.615,0.139-1.259,0.281-1.794,0.335
	c-0.53,0.057-0.835-0.084-1.092-0.335c-0.252-0.252-0.7-0.788-1.092-1.375c-0.611-0.921-0.141-1.622,0.113-1.904
	C256.622,298.613,257.137,297.946,258.106,297.156z M223.205,291.028c3.295-0.81,7.532-4.827,9.254-6.837
	c1.673-1.948,4.542-7.854,9.891-9.784c1.538-0.552,2.935-1.032,4.21-1.44c-3.484,2.08-2.634,7.165-6.917,10.913
	c7.404-3.841,4.819-8.886,12.864-12.542l-4.416,1.148c0.056-0.017,0.108-0.033,0.163-0.048v-26.405h-22.201
	c-5.039,0-9.157,4.122-9.157,9.159v35.223C217.987,290.901,220.404,291.719,223.205,291.028z M302.629,246.032H280.43v15.015
	c0.262-0.049,0.538-0.089,0.841-0.102c1.801-0.086,3.128,0.092,4.392-0.528c0.218-0.104,0.463-0.219,0.724-0.328
	c-2.329,1.762-3.167,4.383-3.948,7.296c-1.122,4.173-4.664,7.034-3.289,11.128c0.083-4.744,5.194-6.46,6.022-10.953
	c0.786-4.231,0.497-6.551,4.477-8.602c0.368-0.105,0.726-0.196,1.06-0.269c1.621-0.354,2.659-0.532,3.277-0.706
	c0.624-0.179,1.709-0.532,1.709-0.532s0.615-1.296,1.063-1.882c0.622-0.824,1.637-1.354,2.102-0.535
	c0.467,0.821,0.663,1.483,0.886,2.237c0,0,1.441,0.776,2.26,1.173c0.82,0.399,2.017,1.042,2.524,1.374
	c0.509,0.329,0.576,0.355,0.664,0.707c0.088,0.355,0.555,1.439,1.395,2.192c0.843,0.754,1.683,1.396,1.507,2.083
	c-0.177,0.687-0.356,0.729-0.441,1.175c-0.09,0.441-0.111,0.772-0.266,1.083c-0.158,0.311-0.772,1.375-1.043,1.664
	c-0.263,0.286-0.795,1.058-1.883,0.44c-1.084-0.622-1.989-1.13-2.59-1.173c-0.596-0.046-0.95,0.086-1.306,0.486
	c-0.355,0.401-0.908,0.816-2.08,0.843c-1.177,0.02-2.527-0.157-3.457-0.068c-0.929,0.088-0.971,0.133-1.284,0.62
	c-0.31,0.487-1.597,2.365-2.192,3.031c-0.597,0.669-0.978,1.046-1.197,1.772c-0.223,0.733-1.637,5.584-1.946,8.973
	c-0.313,3.386-0.298,3.645,0.642,4.495c0.795,0.718,2.288,1.838,3.036,1.924c0.748,0.08,2.579,0.249,3.823,1.37
	c1.246,1.12,2.158,2.12,2.738,3.197c0.587,1.078,1.332,2.658,0.919,3.45c-0.415,0.789-1.582,1.699-2.868,1.617
	c-0.367-0.024-0.627-0.061-0.818-0.128c-0.01-0.002-0.025-0.007-0.029-0.009c-1.026-0.319-1.691-1.139-1.98-2.218
	c-0.217-0.825-0.314-1.753-0.987-2.334v0c-0.692-0.653-1.622-1.181-2.91-1.375c0,0-0.823-0.064-1.622,0.03
	c1.303,0.226,2.637,0.505,3.323,1.245c1.332,1.437-0.198,4.725,2.813,5.68c1.145,0.353,1.895,0.395,2.331,0.217
	c-0.053,1.291-0.434,2.496-1.07,3.53l-0.66-1.458c-0.04-0.092-0.163-0.14-0.271-0.107l-2.396,0.691
	c-0.11,0.031-0.219,0.144-0.246,0.257l-0.576,2.425c-0.024,0.11,0.03,0.231,0.124,0.267l1.306,0.516
	c-1.044,0.572-2.24,0.898-3.514,0.898c-4.041,0-7.314-3.275-7.314-7.314c0-2.759,1.53-5.16,3.789-6.404
	c-0.012-0.004-0.027-0.009-0.039-0.015c-1.731-1.136-3.964-3.05-5.603-4.492c-1.865-1.631-2.851-1.898-4.07-2.325
	c-2.152-0.75-3.324-3.916-3.62-5.464c-0.296-1.555,1.182-2.884,2.291-4.804c1.108-1.923,2.653-8.619,2.023-7.058
	c-0.104,0.263-0.321,0.72-0.47,1.065c-1.293,2.955-5.75,7.824-6.108,8.257c-1.412,1.694-1.085,2.662-0.985,3.348
	c0.097,0.689,0.888,2.563,1.817,4.975c0.939,2.415-2.459,3.992-2.459,3.992c2.459-0.836,4.187-1.872,5.171-2.41
	c3.521-1.941,5.323,3.248,5.96,5.168c0.465,1.396,0.528,2.845,0.532,2.951v19.633h31.359v-61.739
	C311.79,250.154,307.668,246.032,302.629,246.032z M284.218,299.87l1.813,2.434c0.082,0.113,0.257,0.166,0.385,0.12l2.882-0.974
	c0.128-0.039,0.232-0.187,0.232-0.328l-0.032-3.035c0-0.135-0.108-0.286-0.239-0.326l-2.903-0.908
	c-0.128-0.04-0.303,0.02-0.38,0.131l-1.76,2.477C284.134,299.573,284.134,299.759,284.218,299.87z"/>
<path fill="#A70037" d="M300.553,260.094c0,0,0.115,0.259,0.361,0.52c0.269,0.29,0.712,0.576,1.56,1.421
	c0.845,0.85,0.032,1.226-0.746,1.553c-0.774,0.328-1.802,0.22-2.344,0.076c-2.02-0.526-2.484-1.562-2.556-2.313
	c-0.032-0.623,0.321-1.034,0.469-1.187v0c0.182-0.189,0.366-0.388,0.549-0.599c1.27-1.46,0.479-2.758,0.129-3.202
	c-0.291-0.368-0.224,0-0.224,0c0.444,1.62-3.487,4.323-4.911,6.638c-1.429,2.312-0.792,6.455-0.792,6.455s0.07-0.214,0.662-3.14
	c0.512-2.514,1.257-2.989,2.063-3.835c0.162-0.168,0.401-0.377,0.694-0.628c-1.316,3.186,1.433,4.154,3.132,4.154
	c1.766,0,2.753-1.197,3.387-1.714c0.635-0.516,0.989-0.73,1.691-0.94c0.709-0.209,1.131,0.21,1.811,0.824
	c0.68,0.611,1.596,1.199,1.596,1.199C303.76,260.793,301.915,260.272,300.553,260.094z"/>
<path d="M216.895,316.933v21.995c0,5.077,4.123,9.714,9.167,10.297l32.703,5.484c2.521,0.289,4.049,0.44,5.579,0.44
	c1.526,0,3.05-0.151,5.574-0.44l32.703-5.484c5.041-0.583,9.17-5.22,9.17-10.297v-21.995H216.895z"/>
<path fill="#FFFFFF" d="M247.013,330.241H228.74v6.49h-6.53v-8.221c0-2.026,0.414-3.662,1.15-4.484
	c1.334-1.468,3.817-2.434,7.318-2.819c1.702-0.188,2.67-0.228,5.758-0.228h10.578v2.811h-9.76c-2.62,0-4.966,0.162-6.022,0.4
	c-1.653,0.404-2.491,1.203-2.491,2.387v0.849h18.273V330.241L247.013,330.241z"/>
<path fill="#FFFFFF" d="M275.617,336.731h-10.681c-5.291,0-7.817-0.376-10.215-1.555c-2.622-1.298-4.051-3.478-4.051-6.291
	c0-3.541,2.441-6.162,6.768-7.2c1.743-0.423,4.787-0.706,7.771-0.706h10.407v2.811h-9.619c-3.034,0-5.199,0.421-6.531,1.274
	c-1.019,0.634-1.569,1.888-1.569,3.516c0,2.318,0.966,3.949,2.807,4.634c1.198,0.473,3.037,0.706,5.518,0.706h9.395V336.731
	L275.617,336.731z"/>
<path fill="#FFFFFF" d="M279.755,323.684v13.048h6.393c0,0,0-9.8,0-12.22c1.998,1.704,10.93,10.879,10.93,10.879
	c0.939,0.811,1.751,1.518,4.507,1.518c3.616,0,4.896-1.462,4.896-2.709v-13.22h-6.39c0,0,0,9.767,0,12.193
	c-1.996-1.717-10.694-10.734-10.694-10.734c-1.152-0.996-2-1.61-4.745-1.61C280.392,320.829,279.755,322.614,279.755,323.684z"/>
<path fill="#FFFFFF" d="M251.331,344.626h-1.061v-3.349h2.434c0.75,0,1.194,0.054,1.489,0.196c0.356,0.161,0.552,0.433,0.552,0.739
	c0,0.508-0.305,0.827-0.944,0.974c0.579,0.106,0.859,0.406,0.898,0.931c0.042,0.312,0.056,0.378,0.121,0.509h-1.186
	c-0.039-0.077-0.044-0.109-0.056-0.183c-0.02-0.093-0.042-0.232-0.051-0.294c-0.092-0.61-0.407-0.796-1.346-0.796h-0.85V344.626z
	 M252.816,342.759c0.544,0,0.763-0.138,0.763-0.462c0-0.202-0.136-0.345-0.368-0.395c-0.086-0.017-0.218-0.027-0.395-0.027h-1.484
	v0.884H252.816L252.816,342.759z"/>
<path fill="#FFFFFF" d="M261.161,344.025h2.306c0.395,0,0.61-0.023,0.738-0.077c0.152-0.067,0.247-0.177,0.247-0.308
	c0-0.157-0.122-0.29-0.32-0.358c-0.106-0.037-0.297-0.06-0.538-0.06h-0.918c-0.597,0-0.982-0.07-1.247-0.219
	c-0.297-0.175-0.469-0.448-0.469-0.736c0-0.428,0.343-0.8,0.866-0.923c0.223-0.053,0.485-0.067,1.065-0.067h2.502v0.598h-2.262
	c-0.475,0.003-0.509,0.003-0.666,0.031c-0.206,0.035-0.337,0.162-0.337,0.342c0,0.149,0.106,0.266,0.286,0.324
	c0.15,0.044,0.266,0.055,0.625,0.055h0.802c0.729,0,1.124,0.073,1.416,0.276c0.224,0.15,0.368,0.446,0.368,0.731
	c0,0.362-0.244,0.692-0.631,0.854c-0.246,0.103-0.56,0.138-1.295,0.138h-2.538V344.025L261.161,344.025z"/>
<path fill="#FFFFFF" d="M231.585,343.245h-3.077v1.381h-1.099v-1.749c0-0.43,0.07-0.779,0.191-0.954
	c0.225-0.311,0.642-0.516,1.235-0.595c0.288-0.044,0.453-0.052,0.969-0.052h1.787v0.597h-1.647c-0.44,0-0.837,0.035-1.014,0.086
	c-0.281,0.086-0.421,0.257-0.421,0.507v0.182h3.078V343.245z"/>
<path fill="#FFFFFF" d="M236.76,344.626h-1.801c-0.891,0-1.32-0.083-1.722-0.336c-0.443-0.273-0.682-0.736-0.682-1.332
	c0-0.755,0.409-1.312,1.138-1.532c0.292-0.09,0.809-0.149,1.312-0.149h1.756v0.597h-1.623c-0.51,0-0.878,0.092-1.102,0.272
	c-0.172,0.137-0.267,0.399-0.267,0.746c0,0.493,0.165,0.838,0.475,0.981c0.201,0.103,0.514,0.152,0.929,0.152h1.586V344.626z"/>
<path fill="#FFFFFF" d="M238.977,341.853v2.773h1.075c0,0,0-2.082,0-2.599c0.339,0.362,1.847,2.312,1.847,2.312
	c0.155,0.173,0.293,0.321,0.756,0.321c0.607,0,0.828-0.31,0.828-0.574v-2.81h-1.08c0,0,0,2.075,0,2.591
	c-0.334-0.361-1.804-2.283-1.804-2.283c-0.191-0.208-0.334-0.339-0.799-0.339C239.081,341.244,238.977,341.625,238.977,341.853z"/>
<path fill="#FFFFFF" d="M248.263,341.399c-0.285-0.095-0.789-0.155-1.286-0.155h-0.208c-0.495,0-0.998,0.062-1.283,0.155
	c-0.717,0.223-1.119,0.793-1.119,1.559c0,0.609,0.234,1.078,0.668,1.36c0.395,0.256,0.812,0.338,1.688,0.338h0.305
	c0.87,0,1.288-0.082,1.686-0.338c0.434-0.282,0.668-0.751,0.668-1.36C249.382,342.192,248.977,341.622,248.263,341.399z
	 M247.726,343.894c-0.186,0.098-0.472,0.148-0.85,0.153c-0.377-0.005-0.666-0.056-0.854-0.153c-0.3-0.149-0.462-0.498-0.462-1.003
	c0-0.352,0.094-0.625,0.259-0.761c0.215-0.185,0.566-0.274,1.058-0.275c0.489,0.001,0.837,0.091,1.056,0.275
	c0.165,0.136,0.257,0.409,0.257,0.761C248.189,343.396,248.029,343.744,247.726,343.894z"/>
<path fill="#FFFFFF" d="M259.219,341.426c-0.292-0.09-0.806-0.149-1.312-0.149h-1.089l0,0h-1.078v3.35h0.414l0,0h1.798
	c0.894,0,1.32-0.083,1.725-0.336c0.443-0.273,0.683-0.736,0.683-1.332C260.36,342.203,259.948,341.646,259.219,341.426z
	 M258.665,343.873c-0.2,0.103-0.51,0.152-0.927,0.152h-0.92v-2.152h0.958c0.511,0,0.874,0.092,1.1,0.272
	c0.169,0.137,0.264,0.399,0.264,0.745C259.14,343.384,258.977,343.728,258.665,343.873z"/>
<path fill="#FFFFFF" d="M268.471,341.276h1.106v1.745c0,0.434-0.072,0.778-0.193,0.953c-0.228,0.312-0.648,0.518-1.235,0.6
	c-0.291,0.04-0.453,0.052-0.97,0.052h-1.165v-0.601h1.024c0.442,0,0.84-0.033,1.017-0.082c0.275-0.089,0.417-0.259,0.417-0.509
	L268.471,341.276L268.471,341.276z"/>
<path fill="#FFFFFF" d="M276.377,344.025h-0.63c-0.402,0-0.76-0.033-0.922-0.082c-0.165-0.059-0.293-0.154-0.36-0.281l-0.247-0.419
	h2.159v-0.597h-2.508l-0.453-0.775h2.961v-0.594h-3.798c-0.003,0-0.011-0.001-0.013-0.001c-0.396,0-0.591,0.158-0.683,0.305
	c0,0.001-1.774,3.045-1.774,3.045h1.038c0,0,0.399-0.696,0.45-0.782h1.921l0.067,0.11h0.003c0.002,0.009,0.004,0.014,0.006,0.021
	c0.206,0.312,0.585,0.518,1.12,0.599c0.258,0.04,0.406,0.052,0.88,0.052h0.782V344.025z M271.951,343.201
	c0.118-0.22,0.47-0.88,0.581-1.093c0.121,0.208,0.508,0.869,0.642,1.093H271.951z"/>
<path fill="#FFFFFF" d="M291.152,341.853v2.773h1.08c0,0,0-2.082,0-2.599c0.334,0.362,1.84,2.312,1.84,2.312
	c0.158,0.173,0.298,0.321,0.758,0.321c0.61,0,0.822-0.31,0.822-0.574v-2.81h-1.074c0,0,0,2.075,0,2.591
	c-0.336-0.361-1.799-2.283-1.799-2.283c-0.199-0.208-0.339-0.339-0.802-0.339C291.259,341.244,291.152,341.625,291.152,341.853z"/>
<path fill="#FFFFFF" d="M300.113,341.426c-0.295-0.09-0.809-0.149-1.314-0.149h-1.084l0,0h-1.078v3.35h0.412l0,0h1.801
	c0.889,0,1.32-0.083,1.722-0.336c0.441-0.273,0.681-0.736,0.681-1.332C301.252,342.203,300.843,341.646,300.113,341.426z
	 M299.561,343.873c-0.204,0.103-0.512,0.152-0.933,0.152h-0.915v-2.152h0.954c0.511,0,0.879,0.092,1.102,0.272
	c0.172,0.137,0.265,0.399,0.265,0.745C300.034,343.384,299.869,343.728,299.561,343.873z"/>
<path fill="#FFFFFF" d="M278.44,343.436c0,0.249,0.141,0.419,0.419,0.508c0.179,0.049,0.576,0.082,1.015,0.082h1.029v0.601h-1.162
	c-0.524,0-0.689-0.012-0.977-0.052c-0.591-0.081-1.005-0.287-1.232-0.599c-0.124-0.176-0.188-0.521-0.188-0.954v-1.745h1.097
	V343.436z"/>
<path fill="#FFFFFF" d="M282.585,343.436c0,0.249,0.141,0.419,0.42,0.508c0.179,0.049,0.573,0.082,1.017,0.082h1.024v0.601h-1.165
	c-0.521,0-0.68-0.012-0.968-0.052c-0.592-0.081-1.008-0.287-1.235-0.599c-0.121-0.176-0.194-0.521-0.194-0.954v-1.745h1.102V343.436
	z"/>
<path fill="#FFFFFF" d="M288.753,341.582c-0.129-0.222-0.354-0.334-0.678-0.334c-0.396,0-0.589,0.187-0.681,0.333
	c0,0.001-1.775,3.045-1.775,3.045h1.034c0,0,0.402-0.696,0.453-0.782h1.938c0.05,0.087,0.449,0.782,0.449,0.782h1.039
	L288.753,341.582z M287.459,343.201c0.118-0.22,0.466-0.88,0.582-1.093c0.118,0.208,0.509,0.869,0.637,1.093H287.459z"/>
</svg>
