<?xml version="1.0" encoding="utf-8"?>
<!-- Generator: Adobe Illustrator 16.0.0, SVG Export Plug-In . SVG Version: 6.00 Build 0)  -->
<!DOCTYPE svg PUBLIC "-//W3C//DTD SVG 1.1//EN" "http://www.w3.org/Graphics/SVG/1.1/DTD/svg11.dtd">
<svg version="1.1"
	 id="svg2" inkscape:version="0.48.2 r9819" sodipodi:docname="UEFA_Champions_League.svg" xmlns:cc="http://creativecommons.org/ns#" xmlns:rdf="http://www.w3.org/1999/02/22-rdf-syntax-ns#" xmlns:sodipodi="http://sodipodi.sourceforge.net/DTD/sodipodi-0.dtd" xmlns:inkscape="http://www.inkscape.org/namespaces/inkscape" xmlns:dc="http://purl.org/dc/elements/1.1/" xmlns:svg="http://www.w3.org/2000/svg"
	 xmlns="http://www.w3.org/2000/svg" xmlns:xlink="http://www.w3.org/1999/xlink" x="0px" y="0px" width="120px" height="120px"
	 viewBox="40 35.992 120 120" enable-background="new 40 35.992 120 120" xml:space="preserve">
<sodipodi:namedview  pagecolor="#ffffff" fit-margin-top="0.1" guidetolerance="10" objecttolerance="10" bordercolor="#666666" gridtolerance="10" fit-margin-left="0.1" inkscape:cy="46.810893" showgrid="false" inkscape:zoom="2.0884956" borderopacity="1" inkscape:cx="113.71579" id="namedview66" inkscape:window-x="-8" inkscape:window-height="1028" inkscape:window-y="-8" inkscape:window-maximized="1" fit-margin-bottom="0.1" inkscape:window-width="1920" inkscape:current-layer="svg2" fit-margin-right="0.1" inkscape:pageshadow="2" inkscape:pageopacity="0">
	</sodipodi:namedview>
<g id="g3122" transform="matrix(1.7363797,0,0,1.7363797,-0.74000016,-3.725209)">
	<g id="g3058">
		<path id="path6" inkscape:connector-curvature="0" fill="#231F20" d="M58.01,42.674c3.322,0.916,5.799,1.349,5.799,1.349
			c-1.425-1.425-2.7-2.891-3.804-4.278c1.928-2.726,3.446-4.613,3.446-4.613c-2.045,0.453-3.979,1.007-5.71,1.576
			c-1.645-2.362-2.548-4.026-2.548-4.026c-0.48,1.774-0.712,3.55-0.79,5.218c-2.748,1.065-4.466,1.934-4.466,1.934
			c1.486,0.67,3.029,1.254,4.523,1.758c0.242,3.208,0.89,5.435,0.89,5.435C56.185,45.538,57.101,44.058,58.01,42.674"/>
		<path id="path8" inkscape:connector-curvature="0" fill="#231F20" d="M73.173,41.832c-0.452,0.707-1.143,1.211-1.951,1.566
			c-0.111-2.268-0.458-4.276-0.458-4.276c-0.69,1.864-1.423,3.518-2.13,4.946c-2.435,0.312-4.826-0.046-4.826-0.046
			c1.31,1.573,2.329,2.505,3.153,3.135c-1.233,2.079-2.126,3.188-2.126,3.188c1.724-0.395,3.094-1.049,4.184-1.825
			c0.446,0.306,0.83,0.648,1.209,1.227c0,0,0.704-0.997,0.944-3.307C72.915,44.163,73.173,41.832,73.173,41.832"/>
		<path id="path10" inkscape:connector-curvature="0" fill="#231F20" d="M72.378,35.544c-0.777-1.746-1.895-3.063-3.115-4.055
			c-1.04-2.184-2.237-3.193-2.237-3.193c0.101,0.503,0.024,1.072-0.163,1.659c-2.589-1.283-4.951-1.462-4.951-1.462
			c1.504,0.986,2.84,2.209,3.987,3.47c-1.057,1.719-2.446,3.17-2.446,3.17c1.842-0.415,3.325-0.59,4.511-0.621
			c1.821,2.507,2.801,4.613,2.801,4.613c0.035-1.695-0.134-3.173-0.417-4.448C71.889,34.969,72.378,35.544,72.378,35.544"/>
		<path id="path12" inkscape:connector-curvature="0" fill="#231F20" d="M61.912,28.491c-1.257-0.632-2.459-1.072-3.578-1.375
			c1.423-1.204,2.747-1.509,2.747-1.509c-2.285-0.091-4.251,0.322-5.896,0.955c-2.457-0.196-4.021,0.23-4.021,0.23
			c0.368,0.278,0.678,0.773,0.996,1.366c-2.076,1.421-3.131,2.903-3.131,2.903c1.251-0.621,2.58-1.092,3.889-1.452
			c0.143,0.262,0.293,0.524,0.457,0.78c0.867,1.35,1.819,2.292,1.819,2.292c0.34-1.618,0.925-2.878,1.598-3.855
			C59.714,28.419,61.912,28.491,61.912,28.491"/>
		<path id="path14" inkscape:connector-curvature="0" fill="#231F20" d="M46.139,33.475c0.783-0.757,1.737-1.573,2.891-2.414
			c0,0-1.065,0-2.191,0.287c0.745-1.803,1.571-2.803,1.571-2.803s-4.741,3.372-5.642,9.432c0,0,0.398-1.096,1.749-2.749
			c0.537,1.202,1.154,1.958,1.154,1.958C45.68,35.803,45.867,34.56,46.139,33.475"/>
		<path id="path16" inkscape:connector-curvature="0" fill="#231F20" d="M49.939,39.834c-1.646,0.052-2.936,0.196-3.942,0.38
			c-0.282-1.761-0.326-3.027-0.326-3.027c-0.813,1.24-1.339,2.436-1.665,3.55c-1.146,0.425-1.435,0.836-1.435,0.836
			c0.179,0.611,0.537,1.205,0.988,1.761c-0.141,2.639,0.713,4.381,0.713,4.381c0.192-0.925,0.575-1.825,1.055-2.666
			c1.404,1.125,2.794,1.859,2.794,1.859c-0.655-1.174-1.137-2.489-1.491-3.761C48.203,41.171,49.939,39.834,49.939,39.834"/>
		<path id="path18" inkscape:connector-curvature="0" fill="#231F20" d="M58.08,53.31c0,0-1.38-0.551-3.357-1.665
			c0.07-1.188,0.254-2.7,0.63-4.62c0,0-1.571,1.555-3.605,2.759c-1.181-0.816-2.422-1.774-3.627-2.878c0,0,0.587,1.813,1.717,3.809
			c-1.073,0.401-2.178,0.587-3.189,0.34c0,0,1.194,1.492,4.878,2.124c1.021,1.212,2.266,2.213,3.719,2.562
			c0,0-0.438-0.481-0.535-2.282C55.715,53.474,56.833,53.43,58.08,53.31"/>
		<path id="path20" inkscape:connector-curvature="0" fill="#231F20" d="M64.758,53.158c0.316-1.458,0.079-2.813,0.079-2.813
			c-0.932,1.34-1.848,2.36-2.696,3.137c-2.281,0.118-4.061-0.172-4.061-0.172s1.018,1.017,2.192,1.604
			c-1.549,0.958-2.588,1.044-2.588,1.044c6.785,0.143,10.857-4.286,10.857-4.286C67.397,52.426,66.072,52.887,64.758,53.158"/>
		<path id="path22" inkscape:connector-curvature="0" fill="#231F20" d="M50.58,70.544c1.716-1.963,4.239-3.204,7.052-3.204
			c2.892,0,5.479,1.312,7.196,3.373l0.453-0.425c-1.829-2.175-4.571-3.558-7.635-3.558c-2.985,0-5.665,1.312-7.493,3.391
			L50.58,70.544"/>
		<path id="path32" inkscape:connector-curvature="0" fill="#231F20" d="M69.344,65.372c-2.919-3.069-7.044-4.984-11.614-4.984
			c-4.625,0-8.793,1.959-11.718,5.094l-0.494-0.502c3.071-3.217,7.404-5.22,12.2-5.22c4.761,0,9.059,1.971,12.127,5.143
			L69.344,65.372"/>
		<path id="path34" inkscape:connector-curvature="0" fill="#231F20" d="M72.619,78.913c-2.027,0-3.259-1.7-3.259-3.564
			c0-1.935,1.436-3.341,3.31-3.341c2.078,0,3.331,1.649,3.331,3.463C76.001,77.619,74.444,78.914,72.619,78.913 M72.506,72.985
			c-1.261,0-1.638,1.202-1.638,2.017c0,1.191,0.529,2.933,1.985,2.933c1.038,0,1.642-0.926,1.642-2.038
			C74.495,74.717,74.035,72.985,72.506,72.985z"/>
		<path id="path36" inkscape:connector-curvature="0" fill="#231F20" d="M60.203,77.946c0,0.367,0.072,0.499,0.664,0.612v0.254
			c-0.642-0.03-1.041-0.061-1.417-0.061c-0.377,0-0.774,0.03-1.222,0.061v-0.254c0.398-0.071,0.469-0.245,0.469-0.724v-4.981
			c0-0.285-0.123-0.418-0.469-0.427v-0.284h3.015c1.885,0,2.568,0.898,2.568,2.078c-0.002,1.264-0.959,2.038-2.273,2.038
			c-0.498,0-1.233-0.255-1.233-0.468c0-0.093,0.061-0.093,0.154-0.093c0.091,0,0.223,0.031,0.355,0.031
			c1.069,0,1.487-0.601,1.487-1.448c0-0.916-0.57-1.242-1.467-1.242l-0.632,0.066L60.203,77.946"/>
		<path id="path38" inkscape:connector-curvature="0" fill="#231F20" d="M65.779,72.792c0-0.286-0.123-0.418-0.469-0.428v-0.267
			c0.448,0.032,0.846,0.061,1.224,0.061c0.376,0,0.774-0.03,1.22-0.061v0.267c-0.344,0.011-0.468,0.142-0.468,0.428v5.337
			c0,0.285,0.123,0.418,0.468,0.428v0.255c-0.447-0.03-0.845-0.06-1.22-0.061c-0.377,0-0.776,0.031-1.224,0.061v-0.254
			c0.346-0.011,0.469-0.143,0.469-0.428V72.792"/>
		<path id="path40" inkscape:connector-curvature="0" fill="#231F20" d="M78.043,72.785c0-0.285-0.121-0.417-0.469-0.426v-0.267
			c0.449,0.032,0.845,0.061,1.223,0.062c0.276,0,0.58,0,0.896-0.062l2.812,4.556h0.02v-3.72c0-0.528-0.335-0.569-0.611-0.569v-0.266
			c0.335,0.031,0.661,0.061,0.977,0.061c0.337,0,0.673-0.031,0.999-0.061v0.266c-0.347,0.011-0.468,0.142-0.468,0.426v6.027H82.34
			l-3.382-5.261h-0.02v4.431c0,0.529,0.337,0.571,0.612,0.571v0.254c-0.337-0.032-0.663-0.061-0.98-0.061
			c-0.335,0-0.672,0.029-0.997,0.061v-0.255c0.346-0.011,0.469-0.145,0.469-0.429V72.785"/>
		<path id="path42" inkscape:connector-curvature="0" fill="#231F20" d="M85.974,76.496c0.209,1.142,0.96,1.677,2.082,1.677
			c0.619,0,1.508-0.178,1.508-0.964c0-0.629-0.648-0.798-1.132-0.944l-0.745-0.22c-1.069-0.314-2.139-0.765-2.139-2.004
			c0-1.625,1.573-2.117,3.135-2.117c0.661,0,1.344,0.115,1.951,0.336c0,0.754,0.042,1.394,0.083,1.938h-0.262
			c-0.221-0.964-1.006-1.414-1.95-1.414c-0.524,0-1.406,0.166-1.406,0.891c0,0.577,0.503,0.744,0.933,0.871l1.101,0.314
			c1.061,0.303,2.046,0.692,2.046,2.055c0,1.384-1.395,2.118-3.105,2.118c-0.765,0-1.572-0.125-2.276-0.377
			c0-0.829-0.033-1.552-0.083-2.16L85.974,76.496"/>
		<path id="path44" inkscape:connector-curvature="0" fill="#231F20" d="M33.008,72.79c0-0.286-0.121-0.418-0.468-0.427v-0.266
			c0.448,0.031,0.844,0.06,1.221,0.06c0.379,0,0.776-0.03,1.223-0.06v0.266c-0.345,0.01-0.468,0.142-0.468,0.427v2.018h2.466V72.79
			c0-0.286-0.123-0.418-0.469-0.427v-0.266c0.447,0.031,0.846,0.06,1.222,0.06c0.377,0,0.774-0.03,1.222-0.06v0.267
			c-0.346,0.008-0.468,0.141-0.468,0.426l-0.002,5.339c0,0.285,0.124,0.418,0.47,0.428v0.26c-0.448-0.031-0.845-0.061-1.222-0.061
			c-0.376,0-0.775,0.031-1.222,0.061v-0.26c0.347-0.011,0.469-0.143,0.469-0.428v-2.342h-2.466v2.342
			c0,0.285,0.121,0.418,0.467,0.428v0.26c-0.448-0.031-0.844-0.061-1.222-0.061c-0.376,0-0.774,0.031-1.222,0.061v-0.26
			c0.348-0.011,0.468-0.143,0.468-0.428V72.79"/>
		<path id="path46" inkscape:connector-curvature="0" fill="#231F20" d="M42.728,75.898c0.266-0.723,0.592-1.528,0.825-2.343h0.021
			c0.203,1.029,0.375,1.68,0.589,2.343H42.728 M40.262,78.812c0.357-0.03,0.703-0.061,1.059-0.061c0.347,0,0.704,0.03,1.049,0.061
			v-0.254c-0.336-0.02-0.479-0.143-0.479-0.326c0-0.102,0.031-0.214,0.083-0.357l0.448-1.202h1.986l0.326,0.988
			c0.052,0.133,0.102,0.367,0.102,0.51c0,0.234-0.132,0.317-0.51,0.388v0.254c0.439-0.03,0.877-0.061,1.314-0.061
			c0.427,0,0.866,0.03,1.293,0.061v-0.254c-0.304-0.082-0.457-0.214-0.611-0.663l-1.873-5.797c-0.316,0.03-0.642,0.06-0.957,0.06
			c-0.316,0-0.632-0.03-0.958-0.06v0.267c0.276,0,0.388,0.162,0.388,0.264c0,0.102-0.072,0.245-0.132,0.398l-1.997,5.062
			c-0.103,0.265-0.236,0.429-0.531,0.469L40.262,78.812L40.262,78.812z"/>
		<path id="path48" inkscape:connector-curvature="0" fill="#231F20" d="M48.99,73.749c0.01-0.285,0.031-0.571,0.031-0.977
			c0-0.318-0.071-0.357-0.458-0.408v-0.267c0.305,0.031,0.672,0.06,1.04,0.06c0.366,0,0.733-0.03,1.098-0.06l1.786,4.724
			l1.598-4.724c0.356,0.032,0.704,0.06,1.059,0.06c0.357,0,0.713-0.029,1.06-0.06v0.267c-0.355,0.031-0.408,0.142-0.408,0.418
			c0,0.283,0.04,0.742,0.071,1.089l0.326,4.349c0.022,0.266,0.317,0.307,0.52,0.337v0.254c-0.439-0.03-0.886-0.061-1.326-0.061
			c-0.448,0-0.884,0.03-1.303,0.061v-0.254c0.498-0.061,0.632-0.154,0.632-0.621c0-0.245-0.031-0.704-0.06-1.039l-0.234-3.036
			h-0.021l-1.7,5.007h-0.857L49.898,73.8h-0.021l-0.081,2.986c-0.011,0.529-0.032,0.804-0.032,1.079c0,0.51,0.051,0.623,0.663,0.693
			v0.254c-0.408-0.03-0.785-0.061-1.172-0.061c-0.376,0-0.755,0.03-1.07,0.061v-0.254c0.397-0.03,0.561-0.121,0.581-0.551
			L48.99,73.749"/>
		<path id="path50" inkscape:connector-curvature="0" fill="#231F20" d="M31.006,78.439c-0.698,0.534-1.698,0.75-2.351,0.75
			c-2.428,0-3.8-1.885-3.8-3.815c0-1.976,1.372-3.885,4.003-3.885c0.923,0,1.585,0.176,1.842,0.277c0,0.772,0.042,1.517,0.099,2.255
			h-0.294c-0.181-0.943-0.836-1.441-1.782-1.441c-1.282,0-2.27,1.009-2.27,2.714c0,1.283,1.057,2.736,2.54,2.736
			c0.63,0,1.538-0.344,2.143-0.855L31.006,78.439"/>
		<path id="path52" inkscape:connector-curvature="0" fill="#231F20" d="M42.032,82.495c0-0.22-0.094-0.322-0.361-0.33V81.95
			c0.346,0.024,0.653,0.047,0.944,0.047c0.331,0,0.808-0.023,1.038-0.047v0.216c-0.4,0.015-0.456,0.211-0.456,0.433v3.85h1.454
			c0.518,0,0.732-0.236,0.864-0.833h0.255c-0.096,0.511-0.181,1.015-0.189,1.525h-3.91v-0.214c0.267-0.008,0.361-0.109,0.361-0.331
			V82.495"/>
		<path id="path54" inkscape:connector-curvature="0" fill="#231F20" d="M47.037,82.522c0-0.221-0.094-0.323-0.361-0.331v-0.215
			h3.973c0.011,0.432,0.024,0.783,0.064,1.209h-0.216c-0.078-0.433-0.188-0.582-0.614-0.582h-1.68v1.519h1.044
			c0.354,0,0.409-0.119,0.456-0.401h0.215c-0.024,0.196-0.047,0.535-0.047,0.749c0,0.212,0.024,0.557,0.047,0.747h-0.215
			c-0.047-0.284-0.101-0.402-0.456-0.402h-1.044v1.633h1.768c0.425,0,0.557-0.14,0.692-0.803h0.262
			c-0.07,0.646-0.087,1.064-0.094,1.495h-4.155v-0.215c0.267-0.008,0.361-0.109,0.361-0.331V82.522"/>
		<path id="path56" inkscape:connector-curvature="0" fill="#231F20" d="M51.867,86.928c0.228-0.031,0.33-0.156,0.411-0.36
			l1.54-3.899c0.048-0.118,0.101-0.227,0.101-0.305c0-0.079-0.084-0.204-0.298-0.204v-0.214c0.251,0.024,0.495,0.047,0.74,0.047
			c0.243,0,0.495-0.024,0.74-0.047l1.447,4.473c0.117,0.345,0.235,0.447,0.471,0.511v0.213c-0.33-0.023-0.667-0.047-0.997-0.047
			c-0.339,0-0.678,0.024-1.016,0.047v-0.213c0.292-0.056,0.394-0.119,0.394-0.299c0-0.109-0.04-0.291-0.079-0.394l-0.252-0.759
			h-1.534l-0.346,0.926c-0.04,0.108-0.063,0.195-0.063,0.274c0,0.141,0.11,0.234,0.37,0.252v0.213
			c-0.265-0.023-0.542-0.047-0.81-0.047c-0.274,0-0.543,0.024-0.818,0.047V86.928 M54.88,84.881
			c-0.165-0.511-0.299-1.012-0.456-1.805h-0.016c-0.182,0.628-0.433,1.247-0.637,1.805H54.88z"/>
		<path id="path58" inkscape:connector-curvature="0" fill="#231F20" d="M61.228,85.303c0-0.316-0.142-0.331-0.495-0.339v-0.262
			c0.321,0.024,0.645,0.047,0.975,0.047c0.353,0,0.699-0.024,1.052-0.047v0.247c-0.275,0.008-0.417,0.079-0.417,0.432v1.76h-0.457
			l-0.179-0.526c-0.497,0.465-1.016,0.629-1.552,0.629c-1.479,0-2.422-1.219-2.422-2.635c0-1.707,1.141-2.74,2.839-2.74
			c0.544,0,1.128,0.101,1.552,0.366c0,0.388,0.016,0.83,0.048,1.373h-0.226c-0.103-0.701-0.766-1.045-1.42-1.045
			c-1.093,0-1.627,0.835-1.627,1.85c0,0.976,0.551,2.078,1.462,2.078c0.559,0,0.866-0.26,0.866-0.623L61.228,85.303"/>
		<path id="path60" inkscape:connector-curvature="0" fill="#231F20" d="M64.341,82.495c0-0.22-0.093-0.322-0.361-0.33V81.95
			c0.253,0.024,0.574,0.047,0.904,0.047c0.409,0,0.732-0.023,1.046-0.047v0.216c-0.338,0.015-0.424,0.078-0.424,0.385v2.939
			c0,0.889,0.37,1.064,1.007,1.064c0.637,0,1.007-0.19,1.007-1.064V82.55c0-0.307-0.087-0.37-0.425-0.385V81.95
			c0.316,0.024,0.636,0.047,1.046,0.047c0.33,0,0.654-0.023,0.905-0.047v0.216c-0.267,0.008-0.362,0.11-0.362,0.33v2.83
			c0,1.454-0.755,1.918-2.17,1.918c-1.417,0-2.174-0.465-2.174-1.81v-2.939"/>
		<path id="path62" inkscape:connector-curvature="0" fill="#231F20" d="M70.711,82.522c0-0.221-0.094-0.323-0.362-0.331v-0.215
			h3.975c0.007,0.432,0.024,0.783,0.063,1.209h-0.215c-0.079-0.433-0.188-0.582-0.614-0.582h-1.682v1.495h1.046
			c0.352,0,0.409-0.118,0.456-0.401h0.214c-0.023,0.196-0.046,0.535-0.046,0.746c0,0.214,0.022,0.56,0.046,0.75h-0.214
			c-0.047-0.283-0.104-0.403-0.456-0.403h-1.046v1.657h1.77c0.424,0,0.558-0.14,0.691-0.803h0.263
			c-0.071,0.646-0.087,1.064-0.095,1.495h-4.154v-0.215c0.268-0.008,0.362-0.109,0.362-0.331V82.522"/>
		<path id="path64" inkscape:connector-curvature="0" fill="#231F20" d="M75.82,89.262c0.512,0,0.948-0.397,0.948-0.942
			c0-0.54-0.437-0.938-0.948-0.938c-0.518,0-0.956,0.396-0.956,0.938C74.865,88.864,75.302,89.262,75.82,89.262 M75.053,88.32
			c0-0.445,0.335-0.781,0.767-0.781c0.424,0,0.759,0.336,0.759,0.781c0,0.453-0.336,0.786-0.759,0.786
			C75.389,89.105,75.053,88.772,75.053,88.32z M75.621,88.393h0.19l0.286,0.471h0.182l-0.308-0.477c0.16-0.02,0.281-0.105,0.281-0.3
			c0-0.213-0.127-0.309-0.383-0.309h-0.413v1.085h0.165L75.621,88.393L75.621,88.393z M75.621,88.254v-0.336h0.224
			c0.114,0,0.236,0.025,0.236,0.159c0,0.168-0.124,0.177-0.264,0.177H75.621L75.621,88.254z"/>
	</g>
	<g id="g3112" transform="matrix(0.09342156,0,0,0.09342156,-10.945619,52.811555)">
		<path id="path3114" inkscape:connector-curvature="0" sodipodi:nodetypes="ccccccccccccc" fill="#231F20" d="M620.288,138.909
			l7.074-5.755l16.519,20.222c3.395,4.13,8.856,7.64,16.23,1.439c6.321-6.165,3.48-11.414-1.343-17.145l-14.677-18.048l7.218-5.96
			l16.284,20.155c3.732,4.401,5.484,8.205,5.484,13.509c0,6.159-3.474,11.312-8.416,15.538c-2.956,2.462-7.682,4.563-12.612,4.563
			c-6.941,0-11.402-3.329-14.731-7.254L620.288,138.909z"/>
		<path id="path3116" inkscape:connector-curvature="0" sodipodi:nodetypes="cccccccccccccccc" fill="#231F20" d="M693.006,131.745
			l-5.689-27.783c-0.855-3.516-0.193-5.129,3.636-6.032l26.332-5.436l1.866,8.627l-22.455,4.443l2.167,9.975l20.432-4.262
			l1.926,8.332l-20.625,4.347l1.078,4.792c1.017,3.943,2.715,4.792,7.134,3.793l16.008-3.299l1.969,8.525l-16.399,3.371
			C697.635,143.406,694.432,137.717,693.006,131.745L693.006,131.745z"/>
		<path id="path3118" inkscape:connector-curvature="0" sodipodi:nodetypes="cccccccccccccc" fill="#231F20" d="M757.457,140.763
			l-3.799-0.879c-3.72-0.999-5.31-1.83-3.564-7.73l6.929-26.422c3.046-10.722,12.444-9.434,18.096-8.145l16.026,4.196l-2.288,8.512
			l-14.761-3.973c-4.124-1.186-7.194-1.854-8.44,2.727l-1.294,5.274l20.131,5.147l-2.252,8.29l-20.198-5.292L757.457,140.763z"/>
		<path id="path3120" inkscape:connector-curvature="0" sodipodi:nodetypes="cccccccccccccc" fill="#231F20" d="M795.92,154.712
			l-8.591-5.075l38.39-24.779c2.727-1.89,4.985-2.071,6.743-0.56l1.71,1.523c1.589,1.613,1.993,1.866,0.036,8.633l-11.86,41.485
			l-7.658-7.019l2.492-8.494l-8.687-6.923l7.754-4.979l3.612,2.878l4.485-15.177L795.92,154.712z"/>
	</g>
</g>
</svg>
