<?xml version="1.0" encoding="utf-8"?>
<!-- Generator: Adobe Illustrator 16.0.0, SVG Export Plug-In . SVG Version: 6.00 Build 0)  -->
<!DOCTYPE svg PUBLIC "-//W3C//DTD SVG 1.1//EN" "http://www.w3.org/Graphics/SVG/1.1/DTD/svg11.dtd" [
	<!ENTITY ns_extend "http://ns.adobe.com/Extensibility/1.0/">
	<!ENTITY ns_ai "http://ns.adobe.com/AdobeIllustrator/10.0/">
	<!ENTITY ns_graphs "http://ns.adobe.com/Graphs/1.0/">
	<!ENTITY ns_vars "http://ns.adobe.com/Variables/1.0/">
	<!ENTITY ns_imrep "http://ns.adobe.com/ImageReplacement/1.0/">
	<!ENTITY ns_sfw "http://ns.adobe.com/SaveForWeb/1.0/">
	<!ENTITY ns_custom "http://ns.adobe.com/GenericCustomNamespace/1.0/">
	<!ENTITY ns_adobe_xpath "http://ns.adobe.com/XPath/1.0/">
]>
<svg version="1.1" id="Layer_1" xmlns:x="&ns_extend;" xmlns:i="&ns_ai;" xmlns:graph="&ns_graphs;"
	 xmlns="http://www.w3.org/2000/svg" xmlns:xlink="http://www.w3.org/1999/xlink" x="0px" y="0px" width="120px" height="120px"
	 viewBox="101.397 129.92 120 120" enable-background="new 101.397 129.92 120 120" xml:space="preserve">
<metadata>
	<sfw  xmlns="&ns_sfw;">
		<slices></slices>
		<sliceSourceBounds  width="100.218" height="117.868" x="-42.609" y="-50.458" bottomLeftOrigin="true"></sliceSourceBounds>
	</sfw>
</metadata>
<g>
	<path fill="#9C824A" stroke="#9C824A" stroke-width="0.793" stroke-miterlimit="282" d="M161.397,131.406
		c-11.868,0-33.752,3.071-44.896,9.552c-14.673,52.021,5.282,87.396,44.896,107.476c39.615-20.079,59.569-55.63,44.896-107.476
		C195.138,134.478,173.265,131.406,161.397,131.406L161.397,131.406z"/>
	<path fill="#023474" stroke="#023474" stroke-width="0.793" stroke-miterlimit="282" d="M161.397,134.751
		c-11.66,0-24.788,1.491-41.982,8.51c-12.799,45.408,2.049,81.805,41.982,101.641c39.932-19.836,54.77-56.232,41.97-101.641
		C186.174,136.242,173.057,134.751,161.397,134.751L161.397,134.751z"/>
	<path fill="#FFFFFF" stroke="#FFFFFF" stroke-width="0.793" stroke-miterlimit="282" d="M161.343,134.707
		c-11.605,0-24.064,1.722-35.308,5.977c-11.66,46.494-3.058,80.444,35.374,104.186L161.343,134.707L161.343,134.707z
		 M161.408,244.869c38.431-23.741,47.023-57.691,35.363-104.186c-11.243-4.255-23.692-5.977-35.297-5.977L161.408,244.869
		L161.408,244.869z"/>
	<path fill="#EF0107" stroke="#EF0107" stroke-width="0.793" stroke-miterlimit="282" d="M161.408,134.696
		c-11.67,0-23.483,1.766-33.083,5.11c-12.076,48.73-2.377,81.64,33.095,104.129L161.408,134.696L161.408,134.696z"/>
	<path fill="#DB0007" stroke="#DB0007" stroke-width="0.793" stroke-miterlimit="282" d="M161.43,134.696
		c11.671,0,23.483,1.766,33.094,5.11c12.077,48.73,2.379,81.64-33.104,104.129L161.43,134.696L161.43,134.696z"/>
	<path fill="#FFFFFF" d="M146.33,208.231c-5.15,3.532-9.249,4.805-14.005,6.064l-2.871-4.463c4.373-2.215,8.898-5.296,13.457-9.759
		C143.294,204.405,145.31,207.476,146.33,208.231L146.33,208.231z"/>
	<path fill="#9C824A" d="M145.628,208.046c-4.887,3.354-11.693,5.691-19.484,6.831l-1.589-2.412
		c6.673-2.5,13.117-6.228,18.114-11.469C143.425,204.351,144.576,206.577,145.628,208.046L145.628,208.046z"/>
	<path fill="#FFFFFF" d="M132.61,187.551c0,1.875-1.512,3.389-3.386,3.389s-3.397-1.514-3.397-3.389l0,0
		c0-1.875,1.523-3.388,3.397-3.388S132.61,185.676,132.61,187.551L132.61,187.551z"/>
	<path fill="#FFFFFF" d="M132.248,180.873v12.785h10.07c0.657-4.287,3.09-8.838,8.602-12.785H132.248"/>
	<path fill="#FFFFFF" d="M132.654,193.658c-2.247,0.033-4.098-2.785-4.131-6.315c-0.022-3.531,1.775-6.427,4.033-6.47
		c0.022,0,0.044,0,0.077,0"/>
	<path fill="#9C824A" d="M131.185,187.551c0,1.447-1.052,2.61-2.345,2.61c-1.293,0-2.345-1.163-2.345-2.61l0,0
		c0-1.447,1.052-2.61,2.345-2.61C130.133,184.94,131.185,186.104,131.185,187.551L131.185,187.551z"/>
	<path fill="#9C824A" d="M132.522,181.542v11.492h9.994c0.789-3.816,2.728-7.874,7.572-11.492H132.522"/>
	<path fill="#9C824A" d="M132.894,193.034c-2.115,0.044-3.846-2.5-3.879-5.67c-0.022-3.169,1.677-5.779,3.791-5.822
		c0.022,0,0.044,0,0.066,0"/>
	<path fill="#FFFFFF" d="M180.52,196.652c0,10.67-8.636,19.312-19.298,19.312c-10.651,0-19.298-8.642-19.298-19.312l0,0
		c0-10.67,8.646-19.311,19.298-19.311C171.884,177.342,180.52,185.982,180.52,196.652L180.52,196.652L180.52,196.652z"/>
	<path fill="#9C824A" d="M179.511,196.652c0,10.11-8.186,18.302-18.289,18.302c-10.093,0-18.279-8.191-18.279-18.302l0,0
		c0-10.1,8.186-18.302,18.279-18.302C171.325,178.351,179.511,186.542,179.511,196.652L179.511,196.652L179.511,196.652z"/>
	<path fill="#FFFFFF" d="M176.476,196.652c0,8.433-6.827,15.265-15.254,15.265c-8.416,0-15.243-6.832-15.243-15.265l0,0
		c0-8.433,6.827-15.265,15.243-15.265C169.649,181.388,176.476,188.22,176.476,196.652L176.476,196.652L176.476,196.652z"/>
	<path fill="#9C824A" d="M175.468,196.652c0,7.874-6.378,14.244-14.246,14.244c-7.857,0-14.235-6.37-14.235-14.244l0,0
		c0-7.873,6.378-14.244,14.235-14.244C169.09,182.408,175.468,188.779,175.468,196.652L175.468,196.652L175.468,196.652z"/>
	<path fill="#FFFFFF" d="M167.16,196.652c0.012,3.279-2.651,5.943-5.928,5.954c-3.287,0-5.95-2.664-5.95-5.943v-0.011
		c0-3.278,2.652-5.943,5.939-5.943c3.276-0.011,5.939,2.653,5.939,5.933C167.16,196.652,167.16,196.652,167.16,196.652
		L167.16,196.652z"/>
	<path fill="#9C824A" d="M166.46,196.652c0,2.896-2.334,5.242-5.228,5.242c-2.893,0-5.238-2.336-5.249-5.23v-0.011
		c0-2.895,2.345-5.241,5.238-5.241c2.893,0,5.238,2.335,5.238,5.229V196.652L166.46,196.652z"/>
	<path fill="#FFFFFF" d="M163.917,196.652c0,1.48-1.205,2.686-2.695,2.697c-1.479,0-2.686-1.206-2.686-2.697l0,0
		c0-1.491,1.206-2.686,2.686-2.696C162.712,193.954,163.917,195.161,163.917,196.652L163.917,196.652L163.917,196.652z"/>
	<path fill="#9C824A" d="M163.172,196.652c0,1.075-0.865,1.952-1.95,1.952c-1.074,0-1.951-0.866-1.951-1.952l0,0
		c0-1.073,0.877-1.951,1.951-1.951C162.295,194.701,163.172,195.566,163.172,196.652L163.172,196.652L163.172,196.652z"/>
	<rect x="159.173" y="182.079" fill="#FFFFFF" width="4.054" height="9.463"/>
	<rect x="159.808" y="180.72" fill="#9C824A" width="2.794" height="12.029"/>
	<polygon fill="#FFFFFF" points="172.52,187.419 174.734,190.818 166.799,195.973 164.597,192.573 	"/>
	<polygon fill="#9C824A" points="173.999,187.211 175.523,189.558 165.441,196.115 163.917,193.757 	"/>
	<polygon fill="#FFFFFF" points="155.534,197.42 157.704,200.841 149.716,205.907 147.546,202.476 	"/>
	<polygon fill="#9C824A" points="156.893,197.223 158.395,199.592 148.247,206.027 146.746,203.66 	"/>
	<rect x="159.173" y="202.081" fill="#FFFFFF" width="4.054" height="9.462"/>
	<rect x="159.808" y="200.731" fill="#9C824A" width="2.794" height="12.019"/>
	<path fill="#EF0107" stroke="#EF0107" stroke-width="0.3115" stroke-miterlimit="282" d="M157.266,201.072
		c0.548,0.459,1.15,0.877,1.906,1.194l-0.022,8.443c-3.825-0.493-6.717-2.378-8.909-5.064l7.036-4.573"/>
	<path fill="#DB0007" stroke="#DB0007" stroke-width="0.3115" stroke-miterlimit="282" d="M165.166,201.105
		c-0.559,0.449-1.15,0.877-1.906,1.184l0.011,8.444c3.824-0.495,6.718-2.38,8.909-5.066l-7.023-4.562"/>
	<path fill="#DB0007" d="M167.084,197.563l8.373-1.009c0.065,2.094-0.438,3.937-1.151,5.702l-7.244-4.693"/>
	<path fill="#FFFFFF" stroke="#FFFFFF" stroke-width="0.3115" stroke-miterlimit="282" d="M167.095,197.53
		c0.033-0.132,0.022-0.253,0.078-0.636l8.262-1.075c0.033,0.385,0.011,0.525,0,0.702L167.095,197.53L167.095,197.53z"/>
	<path fill="#FFFFFF" d="M179.324,190.566h10.838c-0.339,1.283-0.668,2.588-2.225,3.169c-2.487,0.933-7.648,1.831-7.648,1.831
		C180.191,194.151,179.873,192.232,179.324,190.566L179.324,190.566z"/>
	<path fill="#FFFFFF" d="M171.776,180.687l28.315,0.033l-0.996,10.351l-19.343,1.01
		C178.711,187.452,175.194,183.033,171.776,180.687L171.776,180.687z"/>
	<path fill="#9C824A" d="M172.782,181.421l36.152,0.033l-1.381,8.433L179.5,191.27C178.393,187.079,175.863,184.021,172.782,181.421
		L172.782,181.421z"/>
	<path fill="#9C824A" d="M179.324,190.566h9.983c-0.329,1.14-0.559,2.183-2.026,2.697c-2.335,0.833-7.036,1.491-7.036,1.491
		C180.048,193.385,179.763,191.991,179.324,190.566L179.324,190.566z"/>
	<path fill="#9C824A" d="M168.366,165.652c0,0.461-0.099,1.722-0.153,2.072h5.61c-0.34-1.491-0.493-3.563-0.537-5.165
		c0,0.109-0.098-3.213-0.098-3.213c0-0.23,0.098-0.581,0.24-0.69c0.198-0.23,0.395-0.23,0.637-0.23
		c0.24-0.109,0.679-0.109,0.733,0.801l0.143,3.442c0.055,1.612,0.055,3.795-0.143,5.056h5.402c-0.044-0.461-0.197-1.612-0.241-1.952
		c0.68,1.491,2.148,2.292,4.1,2.292c1.161,0,2.049-0.449,2.729-0.91c0,0.109,0.284,0.57,0.284,0.57h10.038
		c-0.438-1.491-0.724-3.563-0.877-5.165l-1.414-11.25l-5.161-0.922c0.439,1.492,0.735,3.674,0.921,5.166l0.789,7.237
		c0.143,1.261,0.241,2.643,0.241,4.134v0.109l-0.197-0.461c-0.395-0.921-0.581-2.062-0.734-3.783l-0.187-2.303
		c-0.296-3.674-2.289-5.275-6.685-5.275c-0.723,0-2.575,0.11-3.704,0.461l0.296,4.123l1.173-0.68
		c0.976-0.581,1.699-0.812,2.575-0.812c0.69,0,1.129,0.23,1.326,0.691c-0.832,0.12-1.754,0.351-2.783,0.8
		c-1.557,0.691-2.532,1.732-2.97,2.873v-0.109l-0.154-3.794c-0.086-2.413-1.653-4.014-4.043-4.014c-1.063,0-2.039,0.34-2.914,0.921
		c-0.055-0.121-0.099-0.23-0.154-0.351l-0.198-0.461l-4.481-0.231c0.197,0.813,0.493,3.104,0.537,3.904
		c-0.241-1.14-0.877-2.401-2.05-3.322c-0.92-0.581-2.092-0.921-3.309-0.921c-1.655,0-3.364,0.69-4.482,1.842
		c-1.172,1.141-1.754,2.753-1.809,4.584c-0.438-0.46-1.019-0.91-1.698-1.141l-2.05-1.042h-0.098
		c-0.482-0.229-0.537-0.34-0.537-0.449c0.055-0.23,0.537-0.461,1.173-0.461c0.876,0,2.093,0.461,3.068,1.031l0.099-3.674
		c-0.734-0.352-1.753-0.57-3.222-0.57c-0.778,0-2.235,0.109-3.506,0.801c-0.34,0.23-0.636,0.46-0.921,0.691l0.044-1.043
		c-1.172-0.219-2.433-0.219-3.989,1.272c-0.055-0.121-0.153-0.69-0.252-0.921l-4.822,0.23c0.34,1.371,0.395,3.322,0.296,5.044
		l-0.098,1.842v0.231c-0.056,0.92-0.099,1.951-0.198,2.872c-0.394-1.271-0.822-2.993-1.172-4.364l-2.389-10.79l-6.816,1.031
		c0.044,0.109,0.143,0.461,0.197,0.8c0.044,0.461,0.044,1.382-0.591,3.334c-1.118,3.092-2.674,7.808-4.186,11.13
		c-0.198,0.461-0.592,1.151-0.592,1.151h5.314c0.099-0.801,0.438-2.182,0.778-3.213c0.734,0,2.63,0,3.507-0.121
		c0.197,0.812,0.395,1.843,0.449,2.533l0.088,0.801h10.629c-0.241-1.723-0.143-4.014-0.054-5.286
		c0.098-1.491,0.394-2.521,1.03-3.093c0.482-0.58,1.019-0.69,1.414-0.69c-0.055,2.062,1.26,2.983,2.433,3.553l2.092,1.042
		c0.734,0.461,0.734,0.57,0.734,0.801c-0.044,0.34-0.636,0.461-1.172,0.461c-1.118,0-2.63-0.691-4.285-2.522l-0.098,4.813
		c1.314,0.69,2.969,1.031,4.438,1.031c2.433,0,5.019-1.141,5.698-3.323c1.217,2.292,3.605,3.323,5.951,3.323
		C165.441,167.835,166.996,167.154,168.366,165.652L168.366,165.652z M131.766,160.948c0.296-0.801,0.537-1.492,0.975-2.753
		c0.296,1.261,0.438,2.062,0.581,2.644C132.74,160.948,132.446,160.948,131.766,160.948L131.766,160.948z M161.594,159.688
		c0-1.602,0.581-2.292,1.163-2.292c0.196,0,0.635-0.121,0.832,0.69c0.099,0.34,0.143,0.57,0.143,0.68
		c0,0.461-0.241,0.581-0.537,0.581v0.109c0,0-0.822,0.231-1.6,0.582C161.594,159.917,161.594,159.808,161.594,159.688
		L161.594,159.688z M167.15,163.021c-1.03,0.91-1.765,1.491-2.979,1.491c-0.976-0.12-1.557-0.69-1.896-1.491
		c1.02-0.352,4.964-1.842,6.093-2.303c0,0.921,0.044,1.951,0.044,1.951v1.952L167.15,163.021L167.15,163.021z M185.32,164.621
		c-0.921,0-1.118-0.69-1.162-1.14c0.044-0.461,0.187-1.151,1.655-1.612c0.044,0.57,0.098,1.031,0.098,1.031v0.46
		c0.045,0.351,0.045,0.69,0.087,1.031C185.813,164.512,185.572,164.512,185.32,164.621"/>
	<path fill="#FFFFFF" d="M155.786,155.554c-0.482-0.11-1.216-0.341-2.389-0.341c-0.92,0-2.137,0.23-3.068,0.691
		c-1.074,0.69-1.853,1.601-1.896,2.643c-0.099,1.601,0.734,2.292,1.95,2.862c0.822,0.461,1.611,0.921,2.093,1.151
		c0.635,0.34,1.216,0.69,1.172,1.491c-0.054,0.801-0.789,1.382-2.005,1.382c-1.019,0-2.477-0.691-3.506-1.612l-0.044,2.412
		c0.877,0.461,2.291,0.691,3.606,0.691c2.235,0,5.019-1.031,5.063-3.564c0.055-1.951-1.315-2.643-2.137-3.092
		c-0.833-0.352-1.666-0.812-2.049-0.921c-0.395-0.23-1.173-0.461-1.117-1.382c0.087-0.801,1.019-1.151,1.994-1.151
		c0.822,0,1.654,0.23,2.29,0.581"/>
	<path fill="#FFFFFF" d="M135.765,151.31l-5.172,0.69c0.099,0.69-0.099,2.062-0.635,3.673c-1.063,3.093-2.816,8.258-4.187,11.251
		h3.222c0.186-1.041,0.427-1.951,0.92-3.213l4.778-0.121c0.187,0.922,0.537,2.413,0.581,3.334h4.339
		c-0.537-1.271-1.216-3.903-1.655-5.746L135.765,151.31L135.765,151.31z M130.593,161.749l2.345-6.767l1.414,6.656"/>
	<path fill="#FFFFFF" d="M148.137,155.554l-0.099,2.303c-0.777-0.121-1.753,0.109-2.531,0.909c-0.68,0.691-1.117,1.722-1.216,3.564
		c-0.099,1.491-0.143,3.213-0.055,4.595h-3.649c0.241-1.382,0.339-2.982,0.383-4.485l0.098-1.831
		c0.099-1.491,0.099-2.982-0.143-4.364l3.222-0.109c0.143,0.461,0.241,1.261,0.186,2.062
		C145.749,156.013,147.118,155.554,148.137,155.554"/>
	<path fill="#FFFFFF" d="M194.097,152l-3.32-0.581c0.34,1.503,0.438,2.533,0.636,4.024l0.778,7.226
		c0.153,1.492,0.296,2.874,0.252,4.256h3.604c-0.351-1.382-0.493-2.764-0.636-4.256"/>
	<path fill="#FFFFFF" d="M179.226,166.925c-0.186-1.382-0.284-2.764-0.339-4.256l-0.143-3.782c-0.099-2.072-1.271-3.213-3.222-3.213
		c-1.063,0-2.335,0.34-3.409,1.722c-0.043-0.351-0.197-1.262-0.393-1.722l-2.916-0.12c0.241,1.381,0.34,2.752,0.384,4.243
		l0.055,2.872c0.044,1.492,0,2.874-0.099,4.256h3.648c-0.186-1.382-0.285-2.764-0.34-4.256l-0.099-3.212
		c-0.042-1.151,0.833-1.952,1.71-1.952c1.02,0,1.513,0.69,1.557,1.722l0.153,3.442c0.044,1.492,0.044,2.874-0.055,4.256"/>
	<path fill="#FFFFFF" d="M190.634,166.925c-0.438-1.152-0.68-2.533-0.778-4.024l-0.197-2.293c-0.197-2.752-1.359-4.595-5.852-4.595
		c-0.778,0-1.896,0.121-2.816,0.341l0.143,2.072c0.92-0.57,1.852-1.03,3.024-1.03c1.217,0,2.236,0.57,2.335,2.292
		c-1.173,0.12-2.247,0.339-3.463,0.92c-1.359,0.571-2.773,1.723-2.631,3.553c0.143,2.073,1.709,2.994,3.66,2.994
		c1.513,0,2.532-0.69,3.112-1.382c0.098,0.461,0.252,0.801,0.394,1.152H190.634L190.634,166.925L190.634,166.925z M185.32,165.433
		c-1.074,0-1.95-0.581-1.995-1.842c0-1.261,0.778-2.292,3.267-2.643l0.143,1.952c0.055,0.69,0.055,1.151,0.152,1.721
		C186.536,165.082,185.955,165.313,185.32,165.433"/>
	<path fill="#FFFFFF" d="M165.781,155.903c-0.833-0.581-1.808-0.811-2.827-0.811c-2.389,0-5.556,1.722-5.458,6.086
		c0.044,4.474,3.463,5.855,5.852,5.855c2.093,0,3.364-0.801,4.383-1.832l-0.734-1.042c-0.536,0.461-1.413,1.152-2.826,1.152
		c-1.513-0.11-2.478-1.152-3.015-2.753l6.619-2.412C167.577,157.966,166.799,156.705,165.781,155.903L165.781,155.903z
		 M163.49,160.147l-2.63,1.031c-0.055-0.461-0.099-0.922-0.099-1.491c0-2.644,1.458-3.104,1.951-3.104
		c0.778-0.11,1.458,0.351,1.709,1.271C164.706,158.887,164.608,159.808,163.49,160.147"/>
	<polygon fill="#FFFFFF" points="147.897,190.04 150.121,186.651 158.033,191.827 155.808,195.227 	"/>
	<polygon fill="#9C824A" points="147.162,188.877 148.697,186.53 158.745,193.121 157.211,195.468 	"/>
	<polygon fill="#FFFFFF" points="164.783,200.83 167.007,197.432 174.92,202.618 172.695,206.017 	"/>
	<polygon fill="#9C824A" points="164.049,199.668 165.583,197.321 175.632,203.912 174.098,206.248 	"/>
</g>
</svg>
