<?xml version="1.0" encoding="utf-8"?>
<!-- Generator: Adobe Illustrator 16.0.0, SVG Export Plug-In . SVG Version: 6.00 Build 0)  -->
<!DOCTYPE svg PUBLIC "-//W3C//DTD SVG 1.1//EN" "http://www.w3.org/Graphics/SVG/1.1/DTD/svg11.dtd" [
	<!ENTITY ns_extend "http://ns.adobe.com/Extensibility/1.0/">
	<!ENTITY ns_ai "http://ns.adobe.com/AdobeIllustrator/10.0/">
	<!ENTITY ns_graphs "http://ns.adobe.com/Graphs/1.0/">
	<!ENTITY ns_vars "http://ns.adobe.com/Variables/1.0/">
	<!ENTITY ns_imrep "http://ns.adobe.com/ImageReplacement/1.0/">
	<!ENTITY ns_sfw "http://ns.adobe.com/SaveForWeb/1.0/">
	<!ENTITY ns_custom "http://ns.adobe.com/GenericCustomNamespace/1.0/">
	<!ENTITY ns_adobe_xpath "http://ns.adobe.com/XPath/1.0/">
]>
<svg version="1.1" id="Ebene_1" xmlns:x="&ns_extend;" xmlns:i="&ns_ai;" xmlns:graph="&ns_graphs;"
	 xmlns="http://www.w3.org/2000/svg" xmlns:xlink="http://www.w3.org/1999/xlink" x="0px" y="0px" width="120px" height="120px"
	 viewBox="223 223 120 120" enable-background="new 223 223 120 120" xml:space="preserve">
<metadata>
	<sfw  xmlns="&ns_sfw;">
		<slices></slices>
		<sliceSourceBounds  height="120" width="120" x="245.5" y="336.5" bottomLeftOrigin="true"></sliceSourceBounds>
	</sfw>
</metadata>
<circle cx="283" cy="283" r="60"/>
<circle fill="#FFDD00" cx="283" cy="283" r="59.285"/>
<path d="M246.265,313.39l-0.044,0.117l-3.146,8.359h2.25l0.565-1.67h3.069l0.583,1.67h2.245l-3.232-8.477H246.265L246.265,313.39z
	 M248.355,318.468h-1.874l0.935-2.718L248.355,318.468z"/>
<path d="M258.001,318.717l-0.03,0.145c-0.095,0.451-0.292,0.777-0.597,1.008c-0.305,0.231-0.7,0.352-1.207,0.352
	c-0.704-0.003-1.21-0.221-1.577-0.656c-0.366-0.438-0.561-1.072-0.561-1.929c0-0.886,0.197-1.532,0.563-1.959
	c0.366-0.428,0.892-0.645,1.634-0.646c0.522,0,0.915,0.113,1.197,0.324c0.282,0.212,0.454,0.508,0.524,0.932l0.024,0.153h2.09
	l-0.013-0.192c-0.063-0.96-0.437-1.735-1.114-2.271c-0.676-0.538-1.586-0.796-2.708-0.796c-1.378-0.002-2.47,0.379-3.229,1.156
	c-0.76,0.777-1.13,1.891-1.13,3.3c0,1.382,0.363,2.485,1.107,3.276c0.741,0.789,1.786,1.181,3.085,1.181c0.004,0,0.006,0,0.01,0
	c1.131,0,2.071-0.281,2.795-0.855c0.725-0.57,1.128-1.363,1.196-2.326l0.014-0.194h-0.195H258.001L258.001,318.717z"/>
<polygon points="269.819,316.414 266.64,316.414 266.64,313.39 264.499,313.39 264.499,321.866 264.681,321.866 266.64,321.866 
	266.64,318.269 269.819,318.269 269.819,321.866 271.958,321.866 271.958,313.39 269.819,313.39 "/>
<path d="M277.366,313.18c-1.317-0.002-2.394,0.399-3.186,1.208c-0.793,0.808-1.187,1.904-1.185,3.248
	c-0.002,1.341,0.391,2.437,1.185,3.245c0.791,0.81,1.868,1.215,3.186,1.212c0.002,0,0.005,0,0.008,0c1.313,0,2.389-0.402,3.182-1.21
	c0.798-0.811,1.193-1.906,1.192-3.247c0.001-1.341-0.394-2.437-1.192-3.245C279.761,313.581,278.682,313.178,277.366,313.18z
	 M275.744,315.671c0.385-0.448,0.906-0.672,1.622-0.675c0.724,0.003,1.25,0.229,1.64,0.679c0.387,0.451,0.591,1.096,0.591,1.961
	s-0.204,1.512-0.591,1.963c-0.39,0.45-0.916,0.676-1.64,0.678c-0.716-0.004-1.237-0.228-1.622-0.678
	c-0.383-0.451-0.586-1.098-0.586-1.963C275.158,316.768,275.36,316.119,275.744,315.671z"/>
<path d="M289.887,320.552c0-0.011,0-0.021,0-0.027l-0.035-0.967c-0.023-0.561-0.113-0.986-0.296-1.289
	c-0.117-0.191-0.284-0.349-0.493-0.471c0.261-0.142,0.478-0.338,0.642-0.584c0.243-0.367,0.358-0.819,0.358-1.341
	c0.002-0.812-0.24-1.455-0.739-1.875c-0.502-0.417-1.239-0.608-2.197-0.61h-4.342v8.479h0.181h1.946v-3.157h1.69
	c0.448-0.001,0.729,0.092,0.85,0.214c0.123,0.112,0.229,0.412,0.245,0.896l0.022,0.852c0.009,0.239,0.029,0.448,0.065,0.629
	s0.088,0.338,0.162,0.472l0.052,0.095h2.223v-0.542l-0.102-0.049C290.016,321.237,289.896,321.021,289.887,320.552z M284.911,315.15
	h1.975c0.383,0,0.642,0.087,0.802,0.228c0.158,0.142,0.245,0.347,0.246,0.665c-0.001,0.34-0.091,0.545-0.25,0.676
	c-0.16,0.133-0.451,0.219-0.879,0.218h-1.894V315.15L284.911,315.15z"/>
<path d="M297.104,317.272c-0.206-0.108-0.444-0.207-0.713-0.293c-0.272-0.088-0.717-0.205-1.346-0.357
	c-0.15-0.034-0.355-0.079-0.621-0.138c-0.476-0.104-0.823-0.234-1.035-0.375c-0.216-0.146-0.283-0.272-0.285-0.412
	c0.004-0.27,0.092-0.437,0.297-0.581c0.207-0.142,0.525-0.226,0.967-0.226c0.51,0,0.883,0.102,1.124,0.275
	c0.242,0.176,0.372,0.412,0.403,0.766l0.014,0.167h2.051l-0.007-0.189c-0.031-0.854-0.355-1.55-0.964-2.03s-1.436-0.712-2.463-0.712
	c-1.096,0.002-1.954,0.214-2.567,0.667c-0.613,0.451-0.927,1.129-0.924,1.961c0,0.445,0.085,0.843,0.259,1.183
	s0.431,0.613,0.762,0.813c0.375,0.226,0.96,0.41,1.77,0.579c0.079,0.017,0.142,0.031,0.183,0.039
	c0.013,0.002,0.031,0.006,0.054,0.011c0.734,0.158,1.282,0.34,1.63,0.529c0.352,0.192,0.469,0.374,0.466,0.517
	c-0.006,0.291-0.099,0.469-0.311,0.613c-0.212,0.144-0.565,0.229-1.058,0.229c-0.583,0-1.007-0.106-1.281-0.291
	c-0.271-0.187-0.436-0.459-0.498-0.865l-0.023-0.155h-2.089l0.01,0.191c0.047,0.913,0.403,1.651,1.061,2.156
	c0.656,0.505,1.546,0.748,2.652,0.748c1.118,0,2.011-0.238,2.655-0.734c0.648-0.496,0.978-1.222,0.974-2.107
	c0.002-0.446-0.093-0.845-0.286-1.179C297.77,317.735,297.478,317.469,297.104,317.272z"/>
<polygon points="301.365,318.28 305.475,318.28 305.475,316.529 301.367,316.529 301.367,315.161 305.858,315.161 305.858,313.39 
	299.262,313.39 299.262,321.866 299.442,321.866 306.068,321.866 306.068,320.006 301.365,320.006 "/>
<polygon points="312.383,318.513 309.181,313.39 307.053,313.39 307.053,321.866 307.233,321.866 309.157,321.866 309.157,316.738 
	312.383,321.866 314.489,321.866 314.489,313.39 312.383,313.39 "/>
<path d="M322.558,318.072c-0.193-0.337-0.484-0.604-0.86-0.8c-0.205-0.108-0.442-0.207-0.713-0.293
	c-0.271-0.088-0.717-0.205-1.345-0.357c-0.149-0.032-0.356-0.079-0.62-0.138c-0.476-0.104-0.823-0.234-1.037-0.375
	c-0.214-0.146-0.283-0.272-0.284-0.412c0.005-0.27,0.093-0.437,0.298-0.581c0.205-0.142,0.525-0.226,0.967-0.224
	c0.51,0,0.881,0.1,1.123,0.273c0.243,0.176,0.373,0.412,0.403,0.766l0.013,0.167h2.053l-0.008-0.188
	c-0.03-0.855-0.354-1.552-0.963-2.03c-0.608-0.482-1.436-0.712-2.465-0.712c-1.094,0-1.954,0.212-2.565,0.667
	c-0.615,0.451-0.929,1.129-0.924,1.961c0,0.444,0.083,0.841,0.259,1.181c0.174,0.34,0.431,0.615,0.76,0.813
	c0.377,0.226,0.96,0.412,1.77,0.579c0.081,0.017,0.142,0.031,0.185,0.039c0.012,0.002,0.031,0.007,0.052,0.011
	c0.734,0.158,1.284,0.34,1.63,0.529c0.354,0.194,0.471,0.374,0.468,0.517c-0.006,0.293-0.099,0.469-0.311,0.615
	c-0.214,0.144-0.565,0.229-1.059,0.228c-0.582,0.002-1.008-0.105-1.28-0.291c-0.272-0.187-0.436-0.457-0.499-0.865l-0.022-0.155
	h-2.089l0.01,0.191c0.045,0.913,0.403,1.651,1.061,2.156c0.656,0.507,1.546,0.748,2.652,0.748c1.118,0,2.011-0.236,2.657-0.734
	c0.646-0.496,0.976-1.221,0.972-2.107C322.844,318.805,322.751,318.406,322.558,318.072z"/>
<path d="M270.476,270.091c-0.284-0.284-0.555-0.581-0.82-0.886l-0.046-0.052l-0.067-0.009c-0.742-0.099-1.499-0.154-2.269-0.154
	c-1.719,0-3.377,0.256-4.941,0.729l-0.223,0.066l0.12,0.2c4.227,7.055,11.947,11.778,20.771,11.779
	c8.822-0.001,16.542-4.723,20.77-11.776l0.119-0.2l-0.223-0.067c-1.563-0.472-3.221-0.73-4.94-0.731
	c-0.769,0.001-1.525,0.054-2.267,0.153l-0.066,0.008l-0.045,0.052c-0.268,0.305-0.54,0.604-0.824,0.889
	c-3.205,3.205-7.631,5.187-12.523,5.187C278.108,275.278,273.683,273.297,270.476,270.091z"/>
<path d="M259.306,262.501l0.195-0.063c1.898-0.625,3.896-1.027,5.966-1.176l0.205-0.015l-0.04-0.202
	c-0.224-1.125-0.344-2.288-0.344-3.478c0-4.893,1.982-9.318,5.188-12.525c3.207-3.205,7.633-5.188,12.524-5.188
	c4.893,0,9.318,1.983,12.523,5.188c3.205,3.207,5.188,7.633,5.188,12.525c0,1.19-0.119,2.352-0.343,3.477l-0.04,0.202l0.205,0.015
	c2.07,0.149,4.069,0.552,5.967,1.177l0.194,0.063l0.04-0.201c0.303-1.531,0.465-3.114,0.465-4.734
	c-0.002-13.365-10.835-24.198-24.199-24.198c-13.365,0-24.197,10.833-24.198,24.198c0,1.62,0.161,3.203,0.464,4.734L259.306,262.501
	z"/>
<path d="M291.472,286.049c0-1.622-0.163-3.204-0.467-4.734l-0.04-0.201l-0.194,0.064c-1.897,0.625-3.896,1.026-5.966,1.175
	l-0.204,0.015l0.04,0.202c0.224,1.124,0.345,2.287,0.345,3.479c0,4.891-1.982,9.316-5.188,12.523
	c-3.206,3.205-7.632,5.188-12.524,5.188c-4.893,0-9.318-1.982-12.523-5.188c-3.206-3.207-5.188-7.633-5.188-12.523
	c0-4.894,1.982-9.318,5.188-12.525c3.206-3.206,7.631-5.188,12.523-5.188c4.042,0,7.762,1.355,10.743,3.633l0.151,0.116l0.108-0.156
	c1.162-1.679,2.524-3.208,4.053-4.552l0.162-0.143l-0.17-0.134c-4.13-3.285-9.359-5.249-15.047-5.249
	c-13.364,0-24.197,10.833-24.198,24.199c0.001,13.362,10.834,24.197,24.198,24.197C280.637,310.244,291.472,299.411,291.472,286.049
	z"/>
<path d="M288.158,273.827l-0.119-0.2c-0.077-0.13-0.157-0.264-0.239-0.396l-0.112-0.18l-0.16,0.14
	c-0.243,0.211-0.48,0.43-0.712,0.654l-0.476,0.459l0.643-0.153c0.32-0.077,0.64-0.161,0.953-0.256L288.158,273.827z"/>
<path d="M298.726,261.85c-8.822,0-16.542,4.723-20.769,11.777l-0.119,0.199l0.222,0.067c1.563,0.474,3.221,0.73,4.94,0.73
	c0.769,0,1.525-0.052,2.267-0.151l0.068-0.009l0.045-0.052c0.266-0.306,0.538-0.604,0.822-0.888
	c3.207-3.206,7.633-5.188,12.523-5.188c4.893,0,9.318,1.982,12.525,5.188c3.205,3.207,5.188,7.632,5.188,12.523
	c0,4.893-1.982,9.318-5.188,12.525c-3.207,3.205-7.633,5.188-12.525,5.188c-4.041,0-7.762-1.356-10.743-3.635l-0.15-0.115
	l-0.108,0.156c-1.161,1.679-2.524,3.207-4.054,4.552l-0.162,0.143l0.17,0.137c4.131,3.284,9.36,5.249,15.048,5.249
	c13.364-0.002,24.197-10.835,24.199-24.199C322.923,272.683,312.09,261.85,298.726,261.85z"/>
<path d="M281.398,282.368l-0.205-0.015c-2.069-0.149-4.068-0.551-5.966-1.176l-0.195-0.064l-0.04,0.201
	c-0.304,1.53-0.464,3.112-0.464,4.732c0,4.708,1.346,9.104,3.672,12.821l0.113,0.18l0.16-0.14c0.294-0.257,0.582-0.522,0.86-0.8
	c1.328-1.328,2.432-2.876,3.264-4.58l0.038-0.078l-0.035-0.077c-1.016-2.233-1.586-4.71-1.586-7.324c0-1.192,0.12-2.354,0.344-3.479
	L281.398,282.368z"/>
</svg>
