<?xml version="1.0" encoding="utf-8"?>
<!-- Generator: Adobe Illustrator 16.0.0, SVG Export Plug-In . SVG Version: 6.00 Build 0)  -->
<!DOCTYPE svg PUBLIC "-//W3C//DTD SVG 1.1//EN" "http://www.w3.org/Graphics/SVG/1.1/DTD/svg11.dtd" [
	<!ENTITY ns_extend "http://ns.adobe.com/Extensibility/1.0/">
	<!ENTITY ns_ai "http://ns.adobe.com/AdobeIllustrator/10.0/">
	<!ENTITY ns_graphs "http://ns.adobe.com/Graphs/1.0/">
	<!ENTITY ns_vars "http://ns.adobe.com/Variables/1.0/">
	<!ENTITY ns_imrep "http://ns.adobe.com/ImageReplacement/1.0/">
	<!ENTITY ns_sfw "http://ns.adobe.com/SaveForWeb/1.0/">
	<!ENTITY ns_custom "http://ns.adobe.com/GenericCustomNamespace/1.0/">
	<!ENTITY ns_adobe_xpath "http://ns.adobe.com/XPath/1.0/">
]>
<svg version="1.1" id="Layer_1" xmlns:x="&ns_extend;" xmlns:i="&ns_ai;" xmlns:graph="&ns_graphs;"
	 xmlns="http://www.w3.org/2000/svg" xmlns:xlink="http://www.w3.org/1999/xlink" x="0px" y="0px" width="120px" height="120px"
	 viewBox="0 0 120 120" enable-background="new 0 0 120 120" xml:space="preserve">
<metadata>
	<sfw  xmlns="&ns_sfw;">
		<slices></slices>
		<sliceSourceBounds  height="113.621" width="113" x="3.5" y="-116.686" bottomLeftOrigin="true"></sliceSourceBounds>
	</sfw>
</metadata>
<g>
	<path fill="#FFFFFF" d="M78.41,77.423L62.689,65.416c3.107-4.868,7.301-11.852,10.175-16.691
		c10.688,6.997,22.677,8.983,30.512,7.778c2.707-0.281,4.801-2.711,4.398-5.401c-0.541-3.645-3.692-4.537-5.546-4.417
		c-6.688-0.328-16.437-3.317-22.17-7.589c-8.502-5.653-15.696-13.075-26.562-14.074c-12.174-1.066-24.299,5.729-33.408,14.932
		c-1.662,1.674-1.893,4.357-0.431,6.299c1.601,2.134,4.629,2.566,6.766,0.965l0.012-0.01c9.732-7.305,18.571-11.438,26.561-10.218
		L28.101,77.697H9.804c-3.482,0-6.304,2.821-6.304,6.302c0,3.481,2.822,6.3,6.304,6.3h21.92c1.7-0.003,3.417-0.709,4.628-2.09
		l11.589-13.17l20.353,11.057v23.884c0.007,3.478,2.892,6.712,6.374,6.706c3.48-0.013,6.295-3.257,6.283-6.737V82.417
		C80.937,80.534,80.021,78.652,78.41,77.423z"/>
	<path fill="#FFFFFF" d="M76.771,27.452c6.698,0,12.127-5.461,12.127-12.195c0-6.731-5.429-12.192-12.127-12.192
		c-6.692,0-12.121,5.461-12.121,12.192C64.649,21.991,70.078,27.452,76.771,27.452z"/>
	<path fill="#FFFFFF" d="M102.016,87.427c-7.997,0-14.484,6.549-14.484,14.626c0,8.081,6.487,14.633,14.484,14.633
		c7.999,0,14.484-6.552,14.484-14.633C116.5,93.976,110.015,87.427,102.016,87.427z M102.085,110.162
		c-4.414,0-7.994-3.598-7.994-8.037c0-4.442,3.58-8.046,7.994-8.046s7.992,3.604,7.992,8.046
		C110.077,106.564,106.499,110.162,102.085,110.162z"/>
</g>
</svg>
